<?xml version="1.0" encoding="UTF-8"?>
<svg xmlns="http://www.w3.org/2000/svg" xmlns:xlink="http://www.w3.org/1999/xlink" width="470px" height="470px" viewBox="0 0 470 470" version="1.1">
<g id="surface1">
<rect x="0" y="0" width="470" height="470" style="fill:rgb(100%,100%,100%);fill-opacity:1;stroke:none;"/>
<path style=" stroke:none;fill-rule:nonzero;fill:rgb(0%,0%,0%);fill-opacity:1;" d="M 139.730469 25.40625 L 152.433594 25.40625 L 152.433594 38.109375 L 139.730469 38.109375 Z M 139.730469 25.40625 "/>
<path style=" stroke:none;fill-rule:nonzero;fill:rgb(0%,0%,0%);fill-opacity:1;" d="M 165.136719 25.40625 L 177.835938 25.40625 L 177.835938 38.109375 L 165.136719 38.109375 Z M 165.136719 25.40625 "/>
<path style=" stroke:none;fill-rule:nonzero;fill:rgb(0%,0%,0%);fill-opacity:1;" d="M 177.835938 25.40625 L 190.539062 25.40625 L 190.539062 38.109375 L 177.835938 38.109375 Z M 177.835938 25.40625 "/>
<path style=" stroke:none;fill-rule:nonzero;fill:rgb(0%,0%,0%);fill-opacity:1;" d="M 203.242188 25.40625 L 215.945312 25.40625 L 215.945312 38.109375 L 203.242188 38.109375 Z M 203.242188 25.40625 "/>
<path style=" stroke:none;fill-rule:nonzero;fill:rgb(0%,0%,0%);fill-opacity:1;" d="M 254.054688 25.40625 L 266.757812 25.40625 L 266.757812 38.109375 L 254.054688 38.109375 Z M 254.054688 25.40625 "/>
<path style=" stroke:none;fill-rule:nonzero;fill:rgb(0%,0%,0%);fill-opacity:1;" d="M 304.863281 25.40625 L 317.566406 25.40625 L 317.566406 38.109375 L 304.863281 38.109375 Z M 304.863281 25.40625 "/>
<path style=" stroke:none;fill-rule:nonzero;fill:rgb(0%,0%,0%);fill-opacity:1;" d="M 127.027344 38.109375 L 139.730469 38.109375 L 139.730469 50.8125 L 127.027344 50.8125 Z M 127.027344 38.109375 "/>
<path style=" stroke:none;fill-rule:nonzero;fill:rgb(0%,0%,0%);fill-opacity:1;" d="M 139.730469 38.109375 L 152.433594 38.109375 L 152.433594 50.8125 L 139.730469 50.8125 Z M 139.730469 38.109375 "/>
<path style=" stroke:none;fill-rule:nonzero;fill:rgb(0%,0%,0%);fill-opacity:1;" d="M 190.539062 38.109375 L 203.242188 38.109375 L 203.242188 50.8125 L 190.539062 50.8125 Z M 190.539062 38.109375 "/>
<path style=" stroke:none;fill-rule:nonzero;fill:rgb(0%,0%,0%);fill-opacity:1;" d="M 203.242188 38.109375 L 215.945312 38.109375 L 215.945312 50.8125 L 203.242188 50.8125 Z M 203.242188 38.109375 "/>
<path style=" stroke:none;fill-rule:nonzero;fill:rgb(0%,0%,0%);fill-opacity:1;" d="M 228.648438 38.109375 L 241.351562 38.109375 L 241.351562 50.8125 L 228.648438 50.8125 Z M 228.648438 38.109375 "/>
<path style=" stroke:none;fill-rule:nonzero;fill:rgb(0%,0%,0%);fill-opacity:1;" d="M 241.351562 38.109375 L 254.054688 38.109375 L 254.054688 50.8125 L 241.351562 50.8125 Z M 241.351562 38.109375 "/>
<path style=" stroke:none;fill-rule:nonzero;fill:rgb(0%,0%,0%);fill-opacity:1;" d="M 279.460938 38.109375 L 292.164062 38.109375 L 292.164062 50.8125 L 279.460938 50.8125 Z M 279.460938 38.109375 "/>
<path style=" stroke:none;fill-rule:nonzero;fill:rgb(0%,0%,0%);fill-opacity:1;" d="M 292.164062 38.109375 L 304.863281 38.109375 L 304.863281 50.8125 L 292.164062 50.8125 Z M 292.164062 38.109375 "/>
<path style=" stroke:none;fill-rule:nonzero;fill:rgb(0%,0%,0%);fill-opacity:1;" d="M 304.863281 38.109375 L 317.566406 38.109375 L 317.566406 50.8125 L 304.863281 50.8125 Z M 304.863281 38.109375 "/>
<path style=" stroke:none;fill-rule:nonzero;fill:rgb(0%,0%,0%);fill-opacity:1;" d="M 127.027344 50.8125 L 139.730469 50.8125 L 139.730469 63.511719 L 127.027344 63.511719 Z M 127.027344 50.8125 "/>
<path style=" stroke:none;fill-rule:nonzero;fill:rgb(0%,0%,0%);fill-opacity:1;" d="M 152.433594 50.8125 L 165.136719 50.8125 L 165.136719 63.511719 L 152.433594 63.511719 Z M 152.433594 50.8125 "/>
<path style=" stroke:none;fill-rule:nonzero;fill:rgb(0%,0%,0%);fill-opacity:1;" d="M 165.136719 50.8125 L 177.835938 50.8125 L 177.835938 63.511719 L 165.136719 63.511719 Z M 165.136719 50.8125 "/>
<path style=" stroke:none;fill-rule:nonzero;fill:rgb(0%,0%,0%);fill-opacity:1;" d="M 177.835938 50.8125 L 190.539062 50.8125 L 190.539062 63.511719 L 177.835938 63.511719 Z M 177.835938 50.8125 "/>
<path style=" stroke:none;fill-rule:nonzero;fill:rgb(0%,0%,0%);fill-opacity:1;" d="M 190.539062 50.8125 L 203.242188 50.8125 L 203.242188 63.511719 L 190.539062 63.511719 Z M 190.539062 50.8125 "/>
<path style=" stroke:none;fill-rule:nonzero;fill:rgb(0%,0%,0%);fill-opacity:1;" d="M 215.945312 50.8125 L 228.648438 50.8125 L 228.648438 63.511719 L 215.945312 63.511719 Z M 215.945312 50.8125 "/>
<path style=" stroke:none;fill-rule:nonzero;fill:rgb(0%,0%,0%);fill-opacity:1;" d="M 228.648438 50.8125 L 241.351562 50.8125 L 241.351562 63.511719 L 228.648438 63.511719 Z M 228.648438 50.8125 "/>
<path style=" stroke:none;fill-rule:nonzero;fill:rgb(0%,0%,0%);fill-opacity:1;" d="M 241.351562 50.8125 L 254.054688 50.8125 L 254.054688 63.511719 L 241.351562 63.511719 Z M 241.351562 50.8125 "/>
<path style=" stroke:none;fill-rule:nonzero;fill:rgb(0%,0%,0%);fill-opacity:1;" d="M 254.054688 50.8125 L 266.757812 50.8125 L 266.757812 63.511719 L 254.054688 63.511719 Z M 254.054688 50.8125 "/>
<path style=" stroke:none;fill-rule:nonzero;fill:rgb(0%,0%,0%);fill-opacity:1;" d="M 266.757812 50.8125 L 279.460938 50.8125 L 279.460938 63.511719 L 266.757812 63.511719 Z M 266.757812 50.8125 "/>
<path style=" stroke:none;fill-rule:nonzero;fill:rgb(0%,0%,0%);fill-opacity:1;" d="M 279.460938 50.8125 L 292.164062 50.8125 L 292.164062 63.511719 L 279.460938 63.511719 Z M 279.460938 50.8125 "/>
<path style=" stroke:none;fill-rule:nonzero;fill:rgb(0%,0%,0%);fill-opacity:1;" d="M 127.027344 63.511719 L 139.730469 63.511719 L 139.730469 76.214844 L 127.027344 76.214844 Z M 127.027344 63.511719 "/>
<path style=" stroke:none;fill-rule:nonzero;fill:rgb(0%,0%,0%);fill-opacity:1;" d="M 177.835938 63.511719 L 190.539062 63.511719 L 190.539062 76.214844 L 177.835938 76.214844 Z M 177.835938 63.511719 "/>
<path style=" stroke:none;fill-rule:nonzero;fill:rgb(0%,0%,0%);fill-opacity:1;" d="M 266.757812 63.511719 L 279.460938 63.511719 L 279.460938 76.214844 L 266.757812 76.214844 Z M 266.757812 63.511719 "/>
<path style=" stroke:none;fill-rule:nonzero;fill:rgb(0%,0%,0%);fill-opacity:1;" d="M 330.269531 63.511719 L 342.972656 63.511719 L 342.972656 76.214844 L 330.269531 76.214844 Z M 330.269531 63.511719 "/>
<path style=" stroke:none;fill-rule:nonzero;fill:rgb(0%,0%,0%);fill-opacity:1;" d="M 139.730469 76.214844 L 152.433594 76.214844 L 152.433594 88.917969 L 139.730469 88.917969 Z M 139.730469 76.214844 "/>
<path style=" stroke:none;fill-rule:nonzero;fill:rgb(0%,0%,0%);fill-opacity:1;" d="M 152.433594 76.214844 L 165.136719 76.214844 L 165.136719 88.917969 L 152.433594 88.917969 Z M 152.433594 76.214844 "/>
<path style=" stroke:none;fill-rule:nonzero;fill:rgb(0%,0%,0%);fill-opacity:1;" d="M 177.835938 76.214844 L 190.539062 76.214844 L 190.539062 88.917969 L 177.835938 88.917969 Z M 177.835938 76.214844 "/>
<path style=" stroke:none;fill-rule:nonzero;fill:rgb(0%,0%,0%);fill-opacity:1;" d="M 215.945312 76.214844 L 228.648438 76.214844 L 228.648438 88.917969 L 215.945312 88.917969 Z M 215.945312 76.214844 "/>
<path style=" stroke:none;fill-rule:nonzero;fill:rgb(0%,0%,0%);fill-opacity:1;" d="M 241.351562 76.214844 L 254.054688 76.214844 L 254.054688 88.917969 L 241.351562 88.917969 Z M 241.351562 76.214844 "/>
<path style=" stroke:none;fill-rule:nonzero;fill:rgb(0%,0%,0%);fill-opacity:1;" d="M 254.054688 76.214844 L 266.757812 76.214844 L 266.757812 88.917969 L 254.054688 88.917969 Z M 254.054688 76.214844 "/>
<path style=" stroke:none;fill-rule:nonzero;fill:rgb(0%,0%,0%);fill-opacity:1;" d="M 330.269531 76.214844 L 342.972656 76.214844 L 342.972656 88.917969 L 330.269531 88.917969 Z M 330.269531 76.214844 "/>
<path style=" stroke:none;fill-rule:nonzero;fill:rgb(0%,0%,0%);fill-opacity:1;" d="M 190.539062 88.917969 L 203.242188 88.917969 L 203.242188 101.621094 L 190.539062 101.621094 Z M 190.539062 88.917969 "/>
<path style=" stroke:none;fill-rule:nonzero;fill:rgb(0%,0%,0%);fill-opacity:1;" d="M 228.648438 88.917969 L 241.351562 88.917969 L 241.351562 101.621094 L 228.648438 101.621094 Z M 228.648438 88.917969 "/>
<path style=" stroke:none;fill-rule:nonzero;fill:rgb(0%,0%,0%);fill-opacity:1;" d="M 241.351562 88.917969 L 254.054688 88.917969 L 254.054688 101.621094 L 241.351562 101.621094 Z M 241.351562 88.917969 "/>
<path style=" stroke:none;fill-rule:nonzero;fill:rgb(0%,0%,0%);fill-opacity:1;" d="M 279.460938 88.917969 L 292.164062 88.917969 L 292.164062 101.621094 L 279.460938 101.621094 Z M 279.460938 88.917969 "/>
<path style=" stroke:none;fill-rule:nonzero;fill:rgb(0%,0%,0%);fill-opacity:1;" d="M 304.863281 88.917969 L 317.566406 88.917969 L 317.566406 101.621094 L 304.863281 101.621094 Z M 304.863281 88.917969 "/>
<path style=" stroke:none;fill-rule:nonzero;fill:rgb(0%,0%,0%);fill-opacity:1;" d="M 127.027344 101.621094 L 139.730469 101.621094 L 139.730469 114.324219 L 127.027344 114.324219 Z M 127.027344 101.621094 "/>
<path style=" stroke:none;fill-rule:nonzero;fill:rgb(0%,0%,0%);fill-opacity:1;" d="M 152.433594 101.621094 L 165.136719 101.621094 L 165.136719 114.324219 L 152.433594 114.324219 Z M 152.433594 101.621094 "/>
<path style=" stroke:none;fill-rule:nonzero;fill:rgb(0%,0%,0%);fill-opacity:1;" d="M 177.835938 101.621094 L 190.539062 101.621094 L 190.539062 114.324219 L 177.835938 114.324219 Z M 177.835938 101.621094 "/>
<path style=" stroke:none;fill-rule:nonzero;fill:rgb(0%,0%,0%);fill-opacity:1;" d="M 203.242188 101.621094 L 215.945312 101.621094 L 215.945312 114.324219 L 203.242188 114.324219 Z M 203.242188 101.621094 "/>
<path style=" stroke:none;fill-rule:nonzero;fill:rgb(0%,0%,0%);fill-opacity:1;" d="M 228.648438 101.621094 L 241.351562 101.621094 L 241.351562 114.324219 L 228.648438 114.324219 Z M 228.648438 101.621094 "/>
<path style=" stroke:none;fill-rule:nonzero;fill:rgb(0%,0%,0%);fill-opacity:1;" d="M 254.054688 101.621094 L 266.757812 101.621094 L 266.757812 114.324219 L 254.054688 114.324219 Z M 254.054688 101.621094 "/>
<path style=" stroke:none;fill-rule:nonzero;fill:rgb(0%,0%,0%);fill-opacity:1;" d="M 279.460938 101.621094 L 292.164062 101.621094 L 292.164062 114.324219 L 279.460938 114.324219 Z M 279.460938 101.621094 "/>
<path style=" stroke:none;fill-rule:nonzero;fill:rgb(0%,0%,0%);fill-opacity:1;" d="M 304.863281 101.621094 L 317.566406 101.621094 L 317.566406 114.324219 L 304.863281 114.324219 Z M 304.863281 101.621094 "/>
<path style=" stroke:none;fill-rule:nonzero;fill:rgb(0%,0%,0%);fill-opacity:1;" d="M 330.269531 101.621094 L 342.972656 101.621094 L 342.972656 114.324219 L 330.269531 114.324219 Z M 330.269531 101.621094 "/>
<path style=" stroke:none;fill-rule:nonzero;fill:rgb(0%,0%,0%);fill-opacity:1;" d="M 127.027344 114.324219 L 139.730469 114.324219 L 139.730469 127.027344 L 127.027344 127.027344 Z M 127.027344 114.324219 "/>
<path style=" stroke:none;fill-rule:nonzero;fill:rgb(0%,0%,0%);fill-opacity:1;" d="M 139.730469 114.324219 L 152.433594 114.324219 L 152.433594 127.027344 L 139.730469 127.027344 Z M 139.730469 114.324219 "/>
<path style=" stroke:none;fill-rule:nonzero;fill:rgb(0%,0%,0%);fill-opacity:1;" d="M 165.136719 114.324219 L 177.835938 114.324219 L 177.835938 127.027344 L 165.136719 127.027344 Z M 165.136719 114.324219 "/>
<path style=" stroke:none;fill-rule:nonzero;fill:rgb(0%,0%,0%);fill-opacity:1;" d="M 177.835938 114.324219 L 190.539062 114.324219 L 190.539062 127.027344 L 177.835938 127.027344 Z M 177.835938 114.324219 "/>
<path style=" stroke:none;fill-rule:nonzero;fill:rgb(0%,0%,0%);fill-opacity:1;" d="M 254.054688 114.324219 L 266.757812 114.324219 L 266.757812 127.027344 L 254.054688 127.027344 Z M 254.054688 114.324219 "/>
<path style=" stroke:none;fill-rule:nonzero;fill:rgb(0%,0%,0%);fill-opacity:1;" d="M 317.566406 114.324219 L 330.269531 114.324219 L 330.269531 127.027344 L 317.566406 127.027344 Z M 317.566406 114.324219 "/>
<path style=" stroke:none;fill-rule:nonzero;fill:rgb(0%,0%,0%);fill-opacity:1;" d="M 25.40625 127.027344 L 38.109375 127.027344 L 38.109375 139.730469 L 25.40625 139.730469 Z M 25.40625 127.027344 "/>
<path style=" stroke:none;fill-rule:nonzero;fill:rgb(0%,0%,0%);fill-opacity:1;" d="M 101.621094 127.027344 L 114.324219 127.027344 L 114.324219 139.730469 L 101.621094 139.730469 Z M 101.621094 127.027344 "/>
<path style=" stroke:none;fill-rule:nonzero;fill:rgb(0%,0%,0%);fill-opacity:1;" d="M 127.027344 127.027344 L 139.730469 127.027344 L 139.730469 139.730469 L 127.027344 139.730469 Z M 127.027344 127.027344 "/>
<path style=" stroke:none;fill-rule:nonzero;fill:rgb(0%,0%,0%);fill-opacity:1;" d="M 165.136719 127.027344 L 177.835938 127.027344 L 177.835938 139.730469 L 165.136719 139.730469 Z M 165.136719 127.027344 "/>
<path style=" stroke:none;fill-rule:nonzero;fill:rgb(0%,0%,0%);fill-opacity:1;" d="M 190.539062 127.027344 L 203.242188 127.027344 L 203.242188 139.730469 L 190.539062 139.730469 Z M 190.539062 127.027344 "/>
<path style=" stroke:none;fill-rule:nonzero;fill:rgb(0%,0%,0%);fill-opacity:1;" d="M 215.945312 127.027344 L 228.648438 127.027344 L 228.648438 139.730469 L 215.945312 139.730469 Z M 215.945312 127.027344 "/>
<path style=" stroke:none;fill-rule:nonzero;fill:rgb(0%,0%,0%);fill-opacity:1;" d="M 228.648438 127.027344 L 241.351562 127.027344 L 241.351562 139.730469 L 228.648438 139.730469 Z M 228.648438 127.027344 "/>
<path style=" stroke:none;fill-rule:nonzero;fill:rgb(0%,0%,0%);fill-opacity:1;" d="M 241.351562 127.027344 L 254.054688 127.027344 L 254.054688 139.730469 L 241.351562 139.730469 Z M 241.351562 127.027344 "/>
<path style=" stroke:none;fill-rule:nonzero;fill:rgb(0%,0%,0%);fill-opacity:1;" d="M 304.863281 127.027344 L 317.566406 127.027344 L 317.566406 139.730469 L 304.863281 139.730469 Z M 304.863281 127.027344 "/>
<path style=" stroke:none;fill-rule:nonzero;fill:rgb(0%,0%,0%);fill-opacity:1;" d="M 317.566406 127.027344 L 330.269531 127.027344 L 330.269531 139.730469 L 317.566406 139.730469 Z M 317.566406 127.027344 "/>
<path style=" stroke:none;fill-rule:nonzero;fill:rgb(0%,0%,0%);fill-opacity:1;" d="M 330.269531 127.027344 L 342.972656 127.027344 L 342.972656 139.730469 L 330.269531 139.730469 Z M 330.269531 127.027344 "/>
<path style=" stroke:none;fill-rule:nonzero;fill:rgb(0%,0%,0%);fill-opacity:1;" d="M 342.972656 127.027344 L 355.675781 127.027344 L 355.675781 139.730469 L 342.972656 139.730469 Z M 342.972656 127.027344 "/>
<path style=" stroke:none;fill-rule:nonzero;fill:rgb(0%,0%,0%);fill-opacity:1;" d="M 355.675781 127.027344 L 368.378906 127.027344 L 368.378906 139.730469 L 355.675781 139.730469 Z M 355.675781 127.027344 "/>
<path style=" stroke:none;fill-rule:nonzero;fill:rgb(0%,0%,0%);fill-opacity:1;" d="M 393.785156 127.027344 L 406.488281 127.027344 L 406.488281 139.730469 L 393.785156 139.730469 Z M 393.785156 127.027344 "/>
<path style=" stroke:none;fill-rule:nonzero;fill:rgb(0%,0%,0%);fill-opacity:1;" d="M 406.488281 127.027344 L 419.1875 127.027344 L 419.1875 139.730469 L 406.488281 139.730469 Z M 406.488281 127.027344 "/>
<path style=" stroke:none;fill-rule:nonzero;fill:rgb(0%,0%,0%);fill-opacity:1;" d="M 419.1875 127.027344 L 431.890625 127.027344 L 431.890625 139.730469 L 419.1875 139.730469 Z M 419.1875 127.027344 "/>
<path style=" stroke:none;fill-rule:nonzero;fill:rgb(0%,0%,0%);fill-opacity:1;" d="M 38.109375 139.730469 L 50.8125 139.730469 L 50.8125 152.433594 L 38.109375 152.433594 Z M 38.109375 139.730469 "/>
<path style=" stroke:none;fill-rule:nonzero;fill:rgb(0%,0%,0%);fill-opacity:1;" d="M 63.511719 139.730469 L 76.214844 139.730469 L 76.214844 152.433594 L 63.511719 152.433594 Z M 63.511719 139.730469 "/>
<path style=" stroke:none;fill-rule:nonzero;fill:rgb(0%,0%,0%);fill-opacity:1;" d="M 88.917969 139.730469 L 101.621094 139.730469 L 101.621094 152.433594 L 88.917969 152.433594 Z M 88.917969 139.730469 "/>
<path style=" stroke:none;fill-rule:nonzero;fill:rgb(0%,0%,0%);fill-opacity:1;" d="M 139.730469 139.730469 L 152.433594 139.730469 L 152.433594 152.433594 L 139.730469 152.433594 Z M 139.730469 139.730469 "/>
<path style=" stroke:none;fill-rule:nonzero;fill:rgb(0%,0%,0%);fill-opacity:1;" d="M 152.433594 139.730469 L 165.136719 139.730469 L 165.136719 152.433594 L 152.433594 152.433594 Z M 152.433594 139.730469 "/>
<path style=" stroke:none;fill-rule:nonzero;fill:rgb(0%,0%,0%);fill-opacity:1;" d="M 165.136719 139.730469 L 177.835938 139.730469 L 177.835938 152.433594 L 165.136719 152.433594 Z M 165.136719 139.730469 "/>
<path style=" stroke:none;fill-rule:nonzero;fill:rgb(0%,0%,0%);fill-opacity:1;" d="M 203.242188 139.730469 L 215.945312 139.730469 L 215.945312 152.433594 L 203.242188 152.433594 Z M 203.242188 139.730469 "/>
<path style=" stroke:none;fill-rule:nonzero;fill:rgb(0%,0%,0%);fill-opacity:1;" d="M 215.945312 139.730469 L 228.648438 139.730469 L 228.648438 152.433594 L 215.945312 152.433594 Z M 215.945312 139.730469 "/>
<path style=" stroke:none;fill-rule:nonzero;fill:rgb(0%,0%,0%);fill-opacity:1;" d="M 266.757812 139.730469 L 279.460938 139.730469 L 279.460938 152.433594 L 266.757812 152.433594 Z M 266.757812 139.730469 "/>
<path style=" stroke:none;fill-rule:nonzero;fill:rgb(0%,0%,0%);fill-opacity:1;" d="M 304.863281 139.730469 L 317.566406 139.730469 L 317.566406 152.433594 L 304.863281 152.433594 Z M 304.863281 139.730469 "/>
<path style=" stroke:none;fill-rule:nonzero;fill:rgb(0%,0%,0%);fill-opacity:1;" d="M 317.566406 139.730469 L 330.269531 139.730469 L 330.269531 152.433594 L 317.566406 152.433594 Z M 317.566406 139.730469 "/>
<path style=" stroke:none;fill-rule:nonzero;fill:rgb(0%,0%,0%);fill-opacity:1;" d="M 381.082031 139.730469 L 393.785156 139.730469 L 393.785156 152.433594 L 381.082031 152.433594 Z M 381.082031 139.730469 "/>
<path style=" stroke:none;fill-rule:nonzero;fill:rgb(0%,0%,0%);fill-opacity:1;" d="M 393.785156 139.730469 L 406.488281 139.730469 L 406.488281 152.433594 L 393.785156 152.433594 Z M 393.785156 139.730469 "/>
<path style=" stroke:none;fill-rule:nonzero;fill:rgb(0%,0%,0%);fill-opacity:1;" d="M 406.488281 139.730469 L 419.1875 139.730469 L 419.1875 152.433594 L 406.488281 152.433594 Z M 406.488281 139.730469 "/>
<path style=" stroke:none;fill-rule:nonzero;fill:rgb(0%,0%,0%);fill-opacity:1;" d="M 50.8125 152.433594 L 63.511719 152.433594 L 63.511719 165.136719 L 50.8125 165.136719 Z M 50.8125 152.433594 "/>
<path style=" stroke:none;fill-rule:nonzero;fill:rgb(0%,0%,0%);fill-opacity:1;" d="M 76.214844 152.433594 L 88.917969 152.433594 L 88.917969 165.136719 L 76.214844 165.136719 Z M 76.214844 152.433594 "/>
<path style=" stroke:none;fill-rule:nonzero;fill:rgb(0%,0%,0%);fill-opacity:1;" d="M 101.621094 152.433594 L 114.324219 152.433594 L 114.324219 165.136719 L 101.621094 165.136719 Z M 101.621094 152.433594 "/>
<path style=" stroke:none;fill-rule:nonzero;fill:rgb(0%,0%,0%);fill-opacity:1;" d="M 114.324219 152.433594 L 127.027344 152.433594 L 127.027344 165.136719 L 114.324219 165.136719 Z M 114.324219 152.433594 "/>
<path style=" stroke:none;fill-rule:nonzero;fill:rgb(0%,0%,0%);fill-opacity:1;" d="M 127.027344 152.433594 L 139.730469 152.433594 L 139.730469 165.136719 L 127.027344 165.136719 Z M 127.027344 152.433594 "/>
<path style=" stroke:none;fill-rule:nonzero;fill:rgb(0%,0%,0%);fill-opacity:1;" d="M 165.136719 152.433594 L 177.835938 152.433594 L 177.835938 165.136719 L 165.136719 165.136719 Z M 165.136719 152.433594 "/>
<path style=" stroke:none;fill-rule:nonzero;fill:rgb(0%,0%,0%);fill-opacity:1;" d="M 177.835938 152.433594 L 190.539062 152.433594 L 190.539062 165.136719 L 177.835938 165.136719 Z M 177.835938 152.433594 "/>
<path style=" stroke:none;fill-rule:nonzero;fill:rgb(0%,0%,0%);fill-opacity:1;" d="M 215.945312 152.433594 L 228.648438 152.433594 L 228.648438 165.136719 L 215.945312 165.136719 Z M 215.945312 152.433594 "/>
<path style=" stroke:none;fill-rule:nonzero;fill:rgb(0%,0%,0%);fill-opacity:1;" d="M 254.054688 152.433594 L 266.757812 152.433594 L 266.757812 165.136719 L 254.054688 165.136719 Z M 254.054688 152.433594 "/>
<path style=" stroke:none;fill-rule:nonzero;fill:rgb(0%,0%,0%);fill-opacity:1;" d="M 279.460938 152.433594 L 292.164062 152.433594 L 292.164062 165.136719 L 279.460938 165.136719 Z M 279.460938 152.433594 "/>
<path style=" stroke:none;fill-rule:nonzero;fill:rgb(0%,0%,0%);fill-opacity:1;" d="M 292.164062 152.433594 L 304.863281 152.433594 L 304.863281 165.136719 L 292.164062 165.136719 Z M 292.164062 152.433594 "/>
<path style=" stroke:none;fill-rule:nonzero;fill:rgb(0%,0%,0%);fill-opacity:1;" d="M 342.972656 152.433594 L 355.675781 152.433594 L 355.675781 165.136719 L 342.972656 165.136719 Z M 342.972656 152.433594 "/>
<path style=" stroke:none;fill-rule:nonzero;fill:rgb(0%,0%,0%);fill-opacity:1;" d="M 381.082031 152.433594 L 393.785156 152.433594 L 393.785156 165.136719 L 381.082031 165.136719 Z M 381.082031 152.433594 "/>
<path style=" stroke:none;fill-rule:nonzero;fill:rgb(0%,0%,0%);fill-opacity:1;" d="M 406.488281 152.433594 L 419.1875 152.433594 L 419.1875 165.136719 L 406.488281 165.136719 Z M 406.488281 152.433594 "/>
<path style=" stroke:none;fill-rule:nonzero;fill:rgb(0%,0%,0%);fill-opacity:1;" d="M 38.109375 165.136719 L 50.8125 165.136719 L 50.8125 177.835938 L 38.109375 177.835938 Z M 38.109375 165.136719 "/>
<path style=" stroke:none;fill-rule:nonzero;fill:rgb(0%,0%,0%);fill-opacity:1;" d="M 76.214844 165.136719 L 88.917969 165.136719 L 88.917969 177.835938 L 76.214844 177.835938 Z M 76.214844 165.136719 "/>
<path style=" stroke:none;fill-rule:nonzero;fill:rgb(0%,0%,0%);fill-opacity:1;" d="M 127.027344 165.136719 L 139.730469 165.136719 L 139.730469 177.835938 L 127.027344 177.835938 Z M 127.027344 165.136719 "/>
<path style=" stroke:none;fill-rule:nonzero;fill:rgb(0%,0%,0%);fill-opacity:1;" d="M 139.730469 165.136719 L 152.433594 165.136719 L 152.433594 177.835938 L 139.730469 177.835938 Z M 139.730469 165.136719 "/>
<path style=" stroke:none;fill-rule:nonzero;fill:rgb(0%,0%,0%);fill-opacity:1;" d="M 177.835938 165.136719 L 190.539062 165.136719 L 190.539062 177.835938 L 177.835938 177.835938 Z M 177.835938 165.136719 "/>
<path style=" stroke:none;fill-rule:nonzero;fill:rgb(0%,0%,0%);fill-opacity:1;" d="M 203.242188 165.136719 L 215.945312 165.136719 L 215.945312 177.835938 L 203.242188 177.835938 Z M 203.242188 165.136719 "/>
<path style=" stroke:none;fill-rule:nonzero;fill:rgb(0%,0%,0%);fill-opacity:1;" d="M 266.757812 165.136719 L 279.460938 165.136719 L 279.460938 177.835938 L 266.757812 177.835938 Z M 266.757812 165.136719 "/>
<path style=" stroke:none;fill-rule:nonzero;fill:rgb(0%,0%,0%);fill-opacity:1;" d="M 304.863281 165.136719 L 317.566406 165.136719 L 317.566406 177.835938 L 304.863281 177.835938 Z M 304.863281 165.136719 "/>
<path style=" stroke:none;fill-rule:nonzero;fill:rgb(0%,0%,0%);fill-opacity:1;" d="M 330.269531 165.136719 L 342.972656 165.136719 L 342.972656 177.835938 L 330.269531 177.835938 Z M 330.269531 165.136719 "/>
<path style=" stroke:none;fill-rule:nonzero;fill:rgb(0%,0%,0%);fill-opacity:1;" d="M 355.675781 165.136719 L 368.378906 165.136719 L 368.378906 177.835938 L 355.675781 177.835938 Z M 355.675781 165.136719 "/>
<path style=" stroke:none;fill-rule:nonzero;fill:rgb(0%,0%,0%);fill-opacity:1;" d="M 368.378906 165.136719 L 381.082031 165.136719 L 381.082031 177.835938 L 368.378906 177.835938 Z M 368.378906 165.136719 "/>
<path style=" stroke:none;fill-rule:nonzero;fill:rgb(0%,0%,0%);fill-opacity:1;" d="M 381.082031 165.136719 L 393.785156 165.136719 L 393.785156 177.835938 L 381.082031 177.835938 Z M 381.082031 165.136719 "/>
<path style=" stroke:none;fill-rule:nonzero;fill:rgb(0%,0%,0%);fill-opacity:1;" d="M 393.785156 165.136719 L 406.488281 165.136719 L 406.488281 177.835938 L 393.785156 177.835938 Z M 393.785156 165.136719 "/>
<path style=" stroke:none;fill-rule:nonzero;fill:rgb(0%,0%,0%);fill-opacity:1;" d="M 406.488281 165.136719 L 419.1875 165.136719 L 419.1875 177.835938 L 406.488281 177.835938 Z M 406.488281 165.136719 "/>
<path style=" stroke:none;fill-rule:nonzero;fill:rgb(0%,0%,0%);fill-opacity:1;" d="M 419.1875 165.136719 L 431.890625 165.136719 L 431.890625 177.835938 L 419.1875 177.835938 Z M 419.1875 165.136719 "/>
<path style=" stroke:none;fill-rule:nonzero;fill:rgb(0%,0%,0%);fill-opacity:1;" d="M 431.890625 165.136719 L 444.59375 165.136719 L 444.59375 177.835938 L 431.890625 177.835938 Z M 431.890625 165.136719 "/>
<path style=" stroke:none;fill-rule:nonzero;fill:rgb(0%,0%,0%);fill-opacity:1;" d="M 25.40625 177.835938 L 38.109375 177.835938 L 38.109375 190.539062 L 25.40625 190.539062 Z M 25.40625 177.835938 "/>
<path style=" stroke:none;fill-rule:nonzero;fill:rgb(0%,0%,0%);fill-opacity:1;" d="M 50.8125 177.835938 L 63.511719 177.835938 L 63.511719 190.539062 L 50.8125 190.539062 Z M 50.8125 177.835938 "/>
<path style=" stroke:none;fill-rule:nonzero;fill:rgb(0%,0%,0%);fill-opacity:1;" d="M 63.511719 177.835938 L 76.214844 177.835938 L 76.214844 190.539062 L 63.511719 190.539062 Z M 63.511719 177.835938 "/>
<path style=" stroke:none;fill-rule:nonzero;fill:rgb(0%,0%,0%);fill-opacity:1;" d="M 101.621094 177.835938 L 114.324219 177.835938 L 114.324219 190.539062 L 101.621094 190.539062 Z M 101.621094 177.835938 "/>
<path style=" stroke:none;fill-rule:nonzero;fill:rgb(0%,0%,0%);fill-opacity:1;" d="M 114.324219 177.835938 L 127.027344 177.835938 L 127.027344 190.539062 L 114.324219 190.539062 Z M 114.324219 177.835938 "/>
<path style=" stroke:none;fill-rule:nonzero;fill:rgb(0%,0%,0%);fill-opacity:1;" d="M 139.730469 177.835938 L 152.433594 177.835938 L 152.433594 190.539062 L 139.730469 190.539062 Z M 139.730469 177.835938 "/>
<path style=" stroke:none;fill-rule:nonzero;fill:rgb(0%,0%,0%);fill-opacity:1;" d="M 177.835938 177.835938 L 190.539062 177.835938 L 190.539062 190.539062 L 177.835938 190.539062 Z M 177.835938 177.835938 "/>
<path style=" stroke:none;fill-rule:nonzero;fill:rgb(0%,0%,0%);fill-opacity:1;" d="M 190.539062 177.835938 L 203.242188 177.835938 L 203.242188 190.539062 L 190.539062 190.539062 Z M 190.539062 177.835938 "/>
<path style=" stroke:none;fill-rule:nonzero;fill:rgb(0%,0%,0%);fill-opacity:1;" d="M 203.242188 177.835938 L 215.945312 177.835938 L 215.945312 190.539062 L 203.242188 190.539062 Z M 203.242188 177.835938 "/>
<path style=" stroke:none;fill-rule:nonzero;fill:rgb(0%,0%,0%);fill-opacity:1;" d="M 228.648438 177.835938 L 241.351562 177.835938 L 241.351562 190.539062 L 228.648438 190.539062 Z M 228.648438 177.835938 "/>
<path style=" stroke:none;fill-rule:nonzero;fill:rgb(0%,0%,0%);fill-opacity:1;" d="M 241.351562 177.835938 L 254.054688 177.835938 L 254.054688 190.539062 L 241.351562 190.539062 Z M 241.351562 177.835938 "/>
<path style=" stroke:none;fill-rule:nonzero;fill:rgb(0%,0%,0%);fill-opacity:1;" d="M 254.054688 177.835938 L 266.757812 177.835938 L 266.757812 190.539062 L 254.054688 190.539062 Z M 254.054688 177.835938 "/>
<path style=" stroke:none;fill-rule:nonzero;fill:rgb(0%,0%,0%);fill-opacity:1;" d="M 266.757812 177.835938 L 279.460938 177.835938 L 279.460938 190.539062 L 266.757812 190.539062 Z M 266.757812 177.835938 "/>
<path style=" stroke:none;fill-rule:nonzero;fill:rgb(0%,0%,0%);fill-opacity:1;" d="M 279.460938 177.835938 L 292.164062 177.835938 L 292.164062 190.539062 L 279.460938 190.539062 Z M 279.460938 177.835938 "/>
<path style=" stroke:none;fill-rule:nonzero;fill:rgb(0%,0%,0%);fill-opacity:1;" d="M 292.164062 177.835938 L 304.863281 177.835938 L 304.863281 190.539062 L 292.164062 190.539062 Z M 292.164062 177.835938 "/>
<path style=" stroke:none;fill-rule:nonzero;fill:rgb(0%,0%,0%);fill-opacity:1;" d="M 304.863281 177.835938 L 317.566406 177.835938 L 317.566406 190.539062 L 304.863281 190.539062 Z M 304.863281 177.835938 "/>
<path style=" stroke:none;fill-rule:nonzero;fill:rgb(0%,0%,0%);fill-opacity:1;" d="M 317.566406 177.835938 L 330.269531 177.835938 L 330.269531 190.539062 L 317.566406 190.539062 Z M 317.566406 177.835938 "/>
<path style=" stroke:none;fill-rule:nonzero;fill:rgb(0%,0%,0%);fill-opacity:1;" d="M 330.269531 177.835938 L 342.972656 177.835938 L 342.972656 190.539062 L 330.269531 190.539062 Z M 330.269531 177.835938 "/>
<path style=" stroke:none;fill-rule:nonzero;fill:rgb(0%,0%,0%);fill-opacity:1;" d="M 355.675781 177.835938 L 368.378906 177.835938 L 368.378906 190.539062 L 355.675781 190.539062 Z M 355.675781 177.835938 "/>
<path style=" stroke:none;fill-rule:nonzero;fill:rgb(0%,0%,0%);fill-opacity:1;" d="M 368.378906 177.835938 L 381.082031 177.835938 L 381.082031 190.539062 L 368.378906 190.539062 Z M 368.378906 177.835938 "/>
<path style=" stroke:none;fill-rule:nonzero;fill:rgb(0%,0%,0%);fill-opacity:1;" d="M 25.40625 190.539062 L 38.109375 190.539062 L 38.109375 203.242188 L 25.40625 203.242188 Z M 25.40625 190.539062 "/>
<path style=" stroke:none;fill-rule:nonzero;fill:rgb(0%,0%,0%);fill-opacity:1;" d="M 38.109375 190.539062 L 50.8125 190.539062 L 50.8125 203.242188 L 38.109375 203.242188 Z M 38.109375 190.539062 "/>
<path style=" stroke:none;fill-rule:nonzero;fill:rgb(0%,0%,0%);fill-opacity:1;" d="M 63.511719 190.539062 L 76.214844 190.539062 L 76.214844 203.242188 L 63.511719 203.242188 Z M 63.511719 190.539062 "/>
<path style=" stroke:none;fill-rule:nonzero;fill:rgb(0%,0%,0%);fill-opacity:1;" d="M 76.214844 190.539062 L 88.917969 190.539062 L 88.917969 203.242188 L 76.214844 203.242188 Z M 76.214844 190.539062 "/>
<path style=" stroke:none;fill-rule:nonzero;fill:rgb(0%,0%,0%);fill-opacity:1;" d="M 88.917969 190.539062 L 101.621094 190.539062 L 101.621094 203.242188 L 88.917969 203.242188 Z M 88.917969 190.539062 "/>
<path style=" stroke:none;fill-rule:nonzero;fill:rgb(0%,0%,0%);fill-opacity:1;" d="M 165.136719 190.539062 L 177.835938 190.539062 L 177.835938 203.242188 L 165.136719 203.242188 Z M 165.136719 190.539062 "/>
<path style=" stroke:none;fill-rule:nonzero;fill:rgb(0%,0%,0%);fill-opacity:1;" d="M 190.539062 190.539062 L 203.242188 190.539062 L 203.242188 203.242188 L 190.539062 203.242188 Z M 190.539062 190.539062 "/>
<path style=" stroke:none;fill-rule:nonzero;fill:rgb(0%,0%,0%);fill-opacity:1;" d="M 203.242188 190.539062 L 215.945312 190.539062 L 215.945312 203.242188 L 203.242188 203.242188 Z M 203.242188 190.539062 "/>
<path style=" stroke:none;fill-rule:nonzero;fill:rgb(0%,0%,0%);fill-opacity:1;" d="M 228.648438 190.539062 L 241.351562 190.539062 L 241.351562 203.242188 L 228.648438 203.242188 Z M 228.648438 190.539062 "/>
<path style=" stroke:none;fill-rule:nonzero;fill:rgb(0%,0%,0%);fill-opacity:1;" d="M 279.460938 190.539062 L 292.164062 190.539062 L 292.164062 203.242188 L 279.460938 203.242188 Z M 279.460938 190.539062 "/>
<path style=" stroke:none;fill-rule:nonzero;fill:rgb(0%,0%,0%);fill-opacity:1;" d="M 304.863281 190.539062 L 317.566406 190.539062 L 317.566406 203.242188 L 304.863281 203.242188 Z M 304.863281 190.539062 "/>
<path style=" stroke:none;fill-rule:nonzero;fill:rgb(0%,0%,0%);fill-opacity:1;" d="M 317.566406 190.539062 L 330.269531 190.539062 L 330.269531 203.242188 L 317.566406 203.242188 Z M 317.566406 190.539062 "/>
<path style=" stroke:none;fill-rule:nonzero;fill:rgb(0%,0%,0%);fill-opacity:1;" d="M 330.269531 190.539062 L 342.972656 190.539062 L 342.972656 203.242188 L 330.269531 203.242188 Z M 330.269531 190.539062 "/>
<path style=" stroke:none;fill-rule:nonzero;fill:rgb(0%,0%,0%);fill-opacity:1;" d="M 355.675781 190.539062 L 368.378906 190.539062 L 368.378906 203.242188 L 355.675781 203.242188 Z M 355.675781 190.539062 "/>
<path style=" stroke:none;fill-rule:nonzero;fill:rgb(0%,0%,0%);fill-opacity:1;" d="M 368.378906 190.539062 L 381.082031 190.539062 L 381.082031 203.242188 L 368.378906 203.242188 Z M 368.378906 190.539062 "/>
<path style=" stroke:none;fill-rule:nonzero;fill:rgb(0%,0%,0%);fill-opacity:1;" d="M 393.785156 190.539062 L 406.488281 190.539062 L 406.488281 203.242188 L 393.785156 203.242188 Z M 393.785156 190.539062 "/>
<path style=" stroke:none;fill-rule:nonzero;fill:rgb(0%,0%,0%);fill-opacity:1;" d="M 419.1875 190.539062 L 431.890625 190.539062 L 431.890625 203.242188 L 419.1875 203.242188 Z M 419.1875 190.539062 "/>
<path style=" stroke:none;fill-rule:nonzero;fill:rgb(0%,0%,0%);fill-opacity:1;" d="M 431.890625 190.539062 L 444.59375 190.539062 L 444.59375 203.242188 L 431.890625 203.242188 Z M 431.890625 190.539062 "/>
<path style=" stroke:none;fill-rule:nonzero;fill:rgb(0%,0%,0%);fill-opacity:1;" d="M 63.511719 203.242188 L 76.214844 203.242188 L 76.214844 215.945312 L 63.511719 215.945312 Z M 63.511719 203.242188 "/>
<path style=" stroke:none;fill-rule:nonzero;fill:rgb(0%,0%,0%);fill-opacity:1;" d="M 88.917969 203.242188 L 101.621094 203.242188 L 101.621094 215.945312 L 88.917969 215.945312 Z M 88.917969 203.242188 "/>
<path style=" stroke:none;fill-rule:nonzero;fill:rgb(0%,0%,0%);fill-opacity:1;" d="M 101.621094 203.242188 L 114.324219 203.242188 L 114.324219 215.945312 L 101.621094 215.945312 Z M 101.621094 203.242188 "/>
<path style=" stroke:none;fill-rule:nonzero;fill:rgb(0%,0%,0%);fill-opacity:1;" d="M 114.324219 203.242188 L 127.027344 203.242188 L 127.027344 215.945312 L 114.324219 215.945312 Z M 114.324219 203.242188 "/>
<path style=" stroke:none;fill-rule:nonzero;fill:rgb(0%,0%,0%);fill-opacity:1;" d="M 177.835938 203.242188 L 190.539062 203.242188 L 190.539062 215.945312 L 177.835938 215.945312 Z M 177.835938 203.242188 "/>
<path style=" stroke:none;fill-rule:nonzero;fill:rgb(0%,0%,0%);fill-opacity:1;" d="M 241.351562 203.242188 L 254.054688 203.242188 L 254.054688 215.945312 L 241.351562 215.945312 Z M 241.351562 203.242188 "/>
<path style=" stroke:none;fill-rule:nonzero;fill:rgb(0%,0%,0%);fill-opacity:1;" d="M 254.054688 203.242188 L 266.757812 203.242188 L 266.757812 215.945312 L 254.054688 215.945312 Z M 254.054688 203.242188 "/>
<path style=" stroke:none;fill-rule:nonzero;fill:rgb(0%,0%,0%);fill-opacity:1;" d="M 266.757812 203.242188 L 279.460938 203.242188 L 279.460938 215.945312 L 266.757812 215.945312 Z M 266.757812 203.242188 "/>
<path style=" stroke:none;fill-rule:nonzero;fill:rgb(0%,0%,0%);fill-opacity:1;" d="M 292.164062 203.242188 L 304.863281 203.242188 L 304.863281 215.945312 L 292.164062 215.945312 Z M 292.164062 203.242188 "/>
<path style=" stroke:none;fill-rule:nonzero;fill:rgb(0%,0%,0%);fill-opacity:1;" d="M 304.863281 203.242188 L 317.566406 203.242188 L 317.566406 215.945312 L 304.863281 215.945312 Z M 304.863281 203.242188 "/>
<path style=" stroke:none;fill-rule:nonzero;fill:rgb(0%,0%,0%);fill-opacity:1;" d="M 342.972656 203.242188 L 355.675781 203.242188 L 355.675781 215.945312 L 342.972656 215.945312 Z M 342.972656 203.242188 "/>
<path style=" stroke:none;fill-rule:nonzero;fill:rgb(0%,0%,0%);fill-opacity:1;" d="M 355.675781 203.242188 L 368.378906 203.242188 L 368.378906 215.945312 L 355.675781 215.945312 Z M 355.675781 203.242188 "/>
<path style=" stroke:none;fill-rule:nonzero;fill:rgb(0%,0%,0%);fill-opacity:1;" d="M 368.378906 203.242188 L 381.082031 203.242188 L 381.082031 215.945312 L 368.378906 215.945312 Z M 368.378906 203.242188 "/>
<path style=" stroke:none;fill-rule:nonzero;fill:rgb(0%,0%,0%);fill-opacity:1;" d="M 393.785156 203.242188 L 406.488281 203.242188 L 406.488281 215.945312 L 393.785156 215.945312 Z M 393.785156 203.242188 "/>
<path style=" stroke:none;fill-rule:nonzero;fill:rgb(0%,0%,0%);fill-opacity:1;" d="M 419.1875 203.242188 L 431.890625 203.242188 L 431.890625 215.945312 L 419.1875 215.945312 Z M 419.1875 203.242188 "/>
<path style=" stroke:none;fill-rule:nonzero;fill:rgb(0%,0%,0%);fill-opacity:1;" d="M 25.40625 215.945312 L 38.109375 215.945312 L 38.109375 228.648438 L 25.40625 228.648438 Z M 25.40625 215.945312 "/>
<path style=" stroke:none;fill-rule:nonzero;fill:rgb(0%,0%,0%);fill-opacity:1;" d="M 50.8125 215.945312 L 63.511719 215.945312 L 63.511719 228.648438 L 50.8125 228.648438 Z M 50.8125 215.945312 "/>
<path style=" stroke:none;fill-rule:nonzero;fill:rgb(0%,0%,0%);fill-opacity:1;" d="M 76.214844 215.945312 L 88.917969 215.945312 L 88.917969 228.648438 L 76.214844 228.648438 Z M 76.214844 215.945312 "/>
<path style=" stroke:none;fill-rule:nonzero;fill:rgb(0%,0%,0%);fill-opacity:1;" d="M 114.324219 215.945312 L 127.027344 215.945312 L 127.027344 228.648438 L 114.324219 228.648438 Z M 114.324219 215.945312 "/>
<path style=" stroke:none;fill-rule:nonzero;fill:rgb(0%,0%,0%);fill-opacity:1;" d="M 139.730469 215.945312 L 152.433594 215.945312 L 152.433594 228.648438 L 139.730469 228.648438 Z M 139.730469 215.945312 "/>
<path style=" stroke:none;fill-rule:nonzero;fill:rgb(0%,0%,0%);fill-opacity:1;" d="M 165.136719 215.945312 L 177.835938 215.945312 L 177.835938 228.648438 L 165.136719 228.648438 Z M 165.136719 215.945312 "/>
<path style=" stroke:none;fill-rule:nonzero;fill:rgb(0%,0%,0%);fill-opacity:1;" d="M 177.835938 215.945312 L 190.539062 215.945312 L 190.539062 228.648438 L 177.835938 228.648438 Z M 177.835938 215.945312 "/>
<path style=" stroke:none;fill-rule:nonzero;fill:rgb(0%,0%,0%);fill-opacity:1;" d="M 215.945312 215.945312 L 228.648438 215.945312 L 228.648438 228.648438 L 215.945312 228.648438 Z M 215.945312 215.945312 "/>
<path style=" stroke:none;fill-rule:nonzero;fill:rgb(0%,0%,0%);fill-opacity:1;" d="M 266.757812 215.945312 L 279.460938 215.945312 L 279.460938 228.648438 L 266.757812 228.648438 Z M 266.757812 215.945312 "/>
<path style=" stroke:none;fill-rule:nonzero;fill:rgb(0%,0%,0%);fill-opacity:1;" d="M 304.863281 215.945312 L 317.566406 215.945312 L 317.566406 228.648438 L 304.863281 228.648438 Z M 304.863281 215.945312 "/>
<path style=" stroke:none;fill-rule:nonzero;fill:rgb(0%,0%,0%);fill-opacity:1;" d="M 317.566406 215.945312 L 330.269531 215.945312 L 330.269531 228.648438 L 317.566406 228.648438 Z M 317.566406 215.945312 "/>
<path style=" stroke:none;fill-rule:nonzero;fill:rgb(0%,0%,0%);fill-opacity:1;" d="M 342.972656 215.945312 L 355.675781 215.945312 L 355.675781 228.648438 L 342.972656 228.648438 Z M 342.972656 215.945312 "/>
<path style=" stroke:none;fill-rule:nonzero;fill:rgb(0%,0%,0%);fill-opacity:1;" d="M 368.378906 215.945312 L 381.082031 215.945312 L 381.082031 228.648438 L 368.378906 228.648438 Z M 368.378906 215.945312 "/>
<path style=" stroke:none;fill-rule:nonzero;fill:rgb(0%,0%,0%);fill-opacity:1;" d="M 381.082031 215.945312 L 393.785156 215.945312 L 393.785156 228.648438 L 381.082031 228.648438 Z M 381.082031 215.945312 "/>
<path style=" stroke:none;fill-rule:nonzero;fill:rgb(0%,0%,0%);fill-opacity:1;" d="M 393.785156 215.945312 L 406.488281 215.945312 L 406.488281 228.648438 L 393.785156 228.648438 Z M 393.785156 215.945312 "/>
<path style=" stroke:none;fill-rule:nonzero;fill:rgb(0%,0%,0%);fill-opacity:1;" d="M 406.488281 215.945312 L 419.1875 215.945312 L 419.1875 228.648438 L 406.488281 228.648438 Z M 406.488281 215.945312 "/>
<path style=" stroke:none;fill-rule:nonzero;fill:rgb(0%,0%,0%);fill-opacity:1;" d="M 431.890625 215.945312 L 444.59375 215.945312 L 444.59375 228.648438 L 431.890625 228.648438 Z M 431.890625 215.945312 "/>
<path style=" stroke:none;fill-rule:nonzero;fill:rgb(0%,0%,0%);fill-opacity:1;" d="M 63.511719 228.648438 L 76.214844 228.648438 L 76.214844 241.351562 L 63.511719 241.351562 Z M 63.511719 228.648438 "/>
<path style=" stroke:none;fill-rule:nonzero;fill:rgb(0%,0%,0%);fill-opacity:1;" d="M 76.214844 228.648438 L 88.917969 228.648438 L 88.917969 241.351562 L 76.214844 241.351562 Z M 76.214844 228.648438 "/>
<path style=" stroke:none;fill-rule:nonzero;fill:rgb(0%,0%,0%);fill-opacity:1;" d="M 88.917969 228.648438 L 101.621094 228.648438 L 101.621094 241.351562 L 88.917969 241.351562 Z M 88.917969 228.648438 "/>
<path style=" stroke:none;fill-rule:nonzero;fill:rgb(0%,0%,0%);fill-opacity:1;" d="M 101.621094 228.648438 L 114.324219 228.648438 L 114.324219 241.351562 L 101.621094 241.351562 Z M 101.621094 228.648438 "/>
<path style=" stroke:none;fill-rule:nonzero;fill:rgb(0%,0%,0%);fill-opacity:1;" d="M 114.324219 228.648438 L 127.027344 228.648438 L 127.027344 241.351562 L 114.324219 241.351562 Z M 114.324219 228.648438 "/>
<path style=" stroke:none;fill-rule:nonzero;fill:rgb(0%,0%,0%);fill-opacity:1;" d="M 165.136719 228.648438 L 177.835938 228.648438 L 177.835938 241.351562 L 165.136719 241.351562 Z M 165.136719 228.648438 "/>
<path style=" stroke:none;fill-rule:nonzero;fill:rgb(0%,0%,0%);fill-opacity:1;" d="M 241.351562 228.648438 L 254.054688 228.648438 L 254.054688 241.351562 L 241.351562 241.351562 Z M 241.351562 228.648438 "/>
<path style=" stroke:none;fill-rule:nonzero;fill:rgb(0%,0%,0%);fill-opacity:1;" d="M 254.054688 228.648438 L 266.757812 228.648438 L 266.757812 241.351562 L 254.054688 241.351562 Z M 254.054688 228.648438 "/>
<path style=" stroke:none;fill-rule:nonzero;fill:rgb(0%,0%,0%);fill-opacity:1;" d="M 266.757812 228.648438 L 279.460938 228.648438 L 279.460938 241.351562 L 266.757812 241.351562 Z M 266.757812 228.648438 "/>
<path style=" stroke:none;fill-rule:nonzero;fill:rgb(0%,0%,0%);fill-opacity:1;" d="M 279.460938 228.648438 L 292.164062 228.648438 L 292.164062 241.351562 L 279.460938 241.351562 Z M 279.460938 228.648438 "/>
<path style=" stroke:none;fill-rule:nonzero;fill:rgb(0%,0%,0%);fill-opacity:1;" d="M 304.863281 228.648438 L 317.566406 228.648438 L 317.566406 241.351562 L 304.863281 241.351562 Z M 304.863281 228.648438 "/>
<path style=" stroke:none;fill-rule:nonzero;fill:rgb(0%,0%,0%);fill-opacity:1;" d="M 317.566406 228.648438 L 330.269531 228.648438 L 330.269531 241.351562 L 317.566406 241.351562 Z M 317.566406 228.648438 "/>
<path style=" stroke:none;fill-rule:nonzero;fill:rgb(0%,0%,0%);fill-opacity:1;" d="M 330.269531 228.648438 L 342.972656 228.648438 L 342.972656 241.351562 L 330.269531 241.351562 Z M 330.269531 228.648438 "/>
<path style=" stroke:none;fill-rule:nonzero;fill:rgb(0%,0%,0%);fill-opacity:1;" d="M 342.972656 228.648438 L 355.675781 228.648438 L 355.675781 241.351562 L 342.972656 241.351562 Z M 342.972656 228.648438 "/>
<path style=" stroke:none;fill-rule:nonzero;fill:rgb(0%,0%,0%);fill-opacity:1;" d="M 368.378906 228.648438 L 381.082031 228.648438 L 381.082031 241.351562 L 368.378906 241.351562 Z M 368.378906 228.648438 "/>
<path style=" stroke:none;fill-rule:nonzero;fill:rgb(0%,0%,0%);fill-opacity:1;" d="M 381.082031 228.648438 L 393.785156 228.648438 L 393.785156 241.351562 L 381.082031 241.351562 Z M 381.082031 228.648438 "/>
<path style=" stroke:none;fill-rule:nonzero;fill:rgb(0%,0%,0%);fill-opacity:1;" d="M 393.785156 228.648438 L 406.488281 228.648438 L 406.488281 241.351562 L 393.785156 241.351562 Z M 393.785156 228.648438 "/>
<path style=" stroke:none;fill-rule:nonzero;fill:rgb(0%,0%,0%);fill-opacity:1;" d="M 431.890625 228.648438 L 444.59375 228.648438 L 444.59375 241.351562 L 431.890625 241.351562 Z M 431.890625 228.648438 "/>
<path style=" stroke:none;fill-rule:nonzero;fill:rgb(0%,0%,0%);fill-opacity:1;" d="M 63.511719 241.351562 L 76.214844 241.351562 L 76.214844 254.054688 L 63.511719 254.054688 Z M 63.511719 241.351562 "/>
<path style=" stroke:none;fill-rule:nonzero;fill:rgb(0%,0%,0%);fill-opacity:1;" d="M 88.917969 241.351562 L 101.621094 241.351562 L 101.621094 254.054688 L 88.917969 254.054688 Z M 88.917969 241.351562 "/>
<path style=" stroke:none;fill-rule:nonzero;fill:rgb(0%,0%,0%);fill-opacity:1;" d="M 165.136719 241.351562 L 177.835938 241.351562 L 177.835938 254.054688 L 165.136719 254.054688 Z M 165.136719 241.351562 "/>
<path style=" stroke:none;fill-rule:nonzero;fill:rgb(0%,0%,0%);fill-opacity:1;" d="M 177.835938 241.351562 L 190.539062 241.351562 L 190.539062 254.054688 L 177.835938 254.054688 Z M 177.835938 241.351562 "/>
<path style=" stroke:none;fill-rule:nonzero;fill:rgb(0%,0%,0%);fill-opacity:1;" d="M 203.242188 241.351562 L 215.945312 241.351562 L 215.945312 254.054688 L 203.242188 254.054688 Z M 203.242188 241.351562 "/>
<path style=" stroke:none;fill-rule:nonzero;fill:rgb(0%,0%,0%);fill-opacity:1;" d="M 215.945312 241.351562 L 228.648438 241.351562 L 228.648438 254.054688 L 215.945312 254.054688 Z M 215.945312 241.351562 "/>
<path style=" stroke:none;fill-rule:nonzero;fill:rgb(0%,0%,0%);fill-opacity:1;" d="M 228.648438 241.351562 L 241.351562 241.351562 L 241.351562 254.054688 L 228.648438 254.054688 Z M 228.648438 241.351562 "/>
<path style=" stroke:none;fill-rule:nonzero;fill:rgb(0%,0%,0%);fill-opacity:1;" d="M 241.351562 241.351562 L 254.054688 241.351562 L 254.054688 254.054688 L 241.351562 254.054688 Z M 241.351562 241.351562 "/>
<path style=" stroke:none;fill-rule:nonzero;fill:rgb(0%,0%,0%);fill-opacity:1;" d="M 254.054688 241.351562 L 266.757812 241.351562 L 266.757812 254.054688 L 254.054688 254.054688 Z M 254.054688 241.351562 "/>
<path style=" stroke:none;fill-rule:nonzero;fill:rgb(0%,0%,0%);fill-opacity:1;" d="M 266.757812 241.351562 L 279.460938 241.351562 L 279.460938 254.054688 L 266.757812 254.054688 Z M 266.757812 241.351562 "/>
<path style=" stroke:none;fill-rule:nonzero;fill:rgb(0%,0%,0%);fill-opacity:1;" d="M 279.460938 241.351562 L 292.164062 241.351562 L 292.164062 254.054688 L 279.460938 254.054688 Z M 279.460938 241.351562 "/>
<path style=" stroke:none;fill-rule:nonzero;fill:rgb(0%,0%,0%);fill-opacity:1;" d="M 292.164062 241.351562 L 304.863281 241.351562 L 304.863281 254.054688 L 292.164062 254.054688 Z M 292.164062 241.351562 "/>
<path style=" stroke:none;fill-rule:nonzero;fill:rgb(0%,0%,0%);fill-opacity:1;" d="M 317.566406 241.351562 L 330.269531 241.351562 L 330.269531 254.054688 L 317.566406 254.054688 Z M 317.566406 241.351562 "/>
<path style=" stroke:none;fill-rule:nonzero;fill:rgb(0%,0%,0%);fill-opacity:1;" d="M 342.972656 241.351562 L 355.675781 241.351562 L 355.675781 254.054688 L 342.972656 254.054688 Z M 342.972656 241.351562 "/>
<path style=" stroke:none;fill-rule:nonzero;fill:rgb(0%,0%,0%);fill-opacity:1;" d="M 355.675781 241.351562 L 368.378906 241.351562 L 368.378906 254.054688 L 355.675781 254.054688 Z M 355.675781 241.351562 "/>
<path style=" stroke:none;fill-rule:nonzero;fill:rgb(0%,0%,0%);fill-opacity:1;" d="M 393.785156 241.351562 L 406.488281 241.351562 L 406.488281 254.054688 L 393.785156 254.054688 Z M 393.785156 241.351562 "/>
<path style=" stroke:none;fill-rule:nonzero;fill:rgb(0%,0%,0%);fill-opacity:1;" d="M 406.488281 241.351562 L 419.1875 241.351562 L 419.1875 254.054688 L 406.488281 254.054688 Z M 406.488281 241.351562 "/>
<path style=" stroke:none;fill-rule:nonzero;fill:rgb(0%,0%,0%);fill-opacity:1;" d="M 431.890625 241.351562 L 444.59375 241.351562 L 444.59375 254.054688 L 431.890625 254.054688 Z M 431.890625 241.351562 "/>
<path style=" stroke:none;fill-rule:nonzero;fill:rgb(0%,0%,0%);fill-opacity:1;" d="M 38.109375 254.054688 L 50.8125 254.054688 L 50.8125 266.757812 L 38.109375 266.757812 Z M 38.109375 254.054688 "/>
<path style=" stroke:none;fill-rule:nonzero;fill:rgb(0%,0%,0%);fill-opacity:1;" d="M 76.214844 254.054688 L 88.917969 254.054688 L 88.917969 266.757812 L 76.214844 266.757812 Z M 76.214844 254.054688 "/>
<path style=" stroke:none;fill-rule:nonzero;fill:rgb(0%,0%,0%);fill-opacity:1;" d="M 101.621094 254.054688 L 114.324219 254.054688 L 114.324219 266.757812 L 101.621094 266.757812 Z M 101.621094 254.054688 "/>
<path style=" stroke:none;fill-rule:nonzero;fill:rgb(0%,0%,0%);fill-opacity:1;" d="M 114.324219 254.054688 L 127.027344 254.054688 L 127.027344 266.757812 L 114.324219 266.757812 Z M 114.324219 254.054688 "/>
<path style=" stroke:none;fill-rule:nonzero;fill:rgb(0%,0%,0%);fill-opacity:1;" d="M 165.136719 254.054688 L 177.835938 254.054688 L 177.835938 266.757812 L 165.136719 266.757812 Z M 165.136719 254.054688 "/>
<path style=" stroke:none;fill-rule:nonzero;fill:rgb(0%,0%,0%);fill-opacity:1;" d="M 203.242188 254.054688 L 215.945312 254.054688 L 215.945312 266.757812 L 203.242188 266.757812 Z M 203.242188 254.054688 "/>
<path style=" stroke:none;fill-rule:nonzero;fill:rgb(0%,0%,0%);fill-opacity:1;" d="M 215.945312 254.054688 L 228.648438 254.054688 L 228.648438 266.757812 L 215.945312 266.757812 Z M 215.945312 254.054688 "/>
<path style=" stroke:none;fill-rule:nonzero;fill:rgb(0%,0%,0%);fill-opacity:1;" d="M 228.648438 254.054688 L 241.351562 254.054688 L 241.351562 266.757812 L 228.648438 266.757812 Z M 228.648438 254.054688 "/>
<path style=" stroke:none;fill-rule:nonzero;fill:rgb(0%,0%,0%);fill-opacity:1;" d="M 266.757812 254.054688 L 279.460938 254.054688 L 279.460938 266.757812 L 266.757812 266.757812 Z M 266.757812 254.054688 "/>
<path style=" stroke:none;fill-rule:nonzero;fill:rgb(0%,0%,0%);fill-opacity:1;" d="M 279.460938 254.054688 L 292.164062 254.054688 L 292.164062 266.757812 L 279.460938 266.757812 Z M 279.460938 254.054688 "/>
<path style=" stroke:none;fill-rule:nonzero;fill:rgb(0%,0%,0%);fill-opacity:1;" d="M 317.566406 254.054688 L 330.269531 254.054688 L 330.269531 266.757812 L 317.566406 266.757812 Z M 317.566406 254.054688 "/>
<path style=" stroke:none;fill-rule:nonzero;fill:rgb(0%,0%,0%);fill-opacity:1;" d="M 330.269531 254.054688 L 342.972656 254.054688 L 342.972656 266.757812 L 330.269531 266.757812 Z M 330.269531 254.054688 "/>
<path style=" stroke:none;fill-rule:nonzero;fill:rgb(0%,0%,0%);fill-opacity:1;" d="M 368.378906 254.054688 L 381.082031 254.054688 L 381.082031 266.757812 L 368.378906 266.757812 Z M 368.378906 254.054688 "/>
<path style=" stroke:none;fill-rule:nonzero;fill:rgb(0%,0%,0%);fill-opacity:1;" d="M 393.785156 254.054688 L 406.488281 254.054688 L 406.488281 266.757812 L 393.785156 266.757812 Z M 393.785156 254.054688 "/>
<path style=" stroke:none;fill-rule:nonzero;fill:rgb(0%,0%,0%);fill-opacity:1;" d="M 406.488281 254.054688 L 419.1875 254.054688 L 419.1875 266.757812 L 406.488281 266.757812 Z M 406.488281 254.054688 "/>
<path style=" stroke:none;fill-rule:nonzero;fill:rgb(0%,0%,0%);fill-opacity:1;" d="M 431.890625 254.054688 L 444.59375 254.054688 L 444.59375 266.757812 L 431.890625 266.757812 Z M 431.890625 254.054688 "/>
<path style=" stroke:none;fill-rule:nonzero;fill:rgb(0%,0%,0%);fill-opacity:1;" d="M 25.40625 266.757812 L 38.109375 266.757812 L 38.109375 279.460938 L 25.40625 279.460938 Z M 25.40625 266.757812 "/>
<path style=" stroke:none;fill-rule:nonzero;fill:rgb(0%,0%,0%);fill-opacity:1;" d="M 38.109375 266.757812 L 50.8125 266.757812 L 50.8125 279.460938 L 38.109375 279.460938 Z M 38.109375 266.757812 "/>
<path style=" stroke:none;fill-rule:nonzero;fill:rgb(0%,0%,0%);fill-opacity:1;" d="M 76.214844 266.757812 L 88.917969 266.757812 L 88.917969 279.460938 L 76.214844 279.460938 Z M 76.214844 266.757812 "/>
<path style=" stroke:none;fill-rule:nonzero;fill:rgb(0%,0%,0%);fill-opacity:1;" d="M 88.917969 266.757812 L 101.621094 266.757812 L 101.621094 279.460938 L 88.917969 279.460938 Z M 88.917969 266.757812 "/>
<path style=" stroke:none;fill-rule:nonzero;fill:rgb(0%,0%,0%);fill-opacity:1;" d="M 114.324219 266.757812 L 127.027344 266.757812 L 127.027344 279.460938 L 114.324219 279.460938 Z M 114.324219 266.757812 "/>
<path style=" stroke:none;fill-rule:nonzero;fill:rgb(0%,0%,0%);fill-opacity:1;" d="M 139.730469 266.757812 L 152.433594 266.757812 L 152.433594 279.460938 L 139.730469 279.460938 Z M 139.730469 266.757812 "/>
<path style=" stroke:none;fill-rule:nonzero;fill:rgb(0%,0%,0%);fill-opacity:1;" d="M 177.835938 266.757812 L 190.539062 266.757812 L 190.539062 279.460938 L 177.835938 279.460938 Z M 177.835938 266.757812 "/>
<path style=" stroke:none;fill-rule:nonzero;fill:rgb(0%,0%,0%);fill-opacity:1;" d="M 190.539062 266.757812 L 203.242188 266.757812 L 203.242188 279.460938 L 190.539062 279.460938 Z M 190.539062 266.757812 "/>
<path style=" stroke:none;fill-rule:nonzero;fill:rgb(0%,0%,0%);fill-opacity:1;" d="M 203.242188 266.757812 L 215.945312 266.757812 L 215.945312 279.460938 L 203.242188 279.460938 Z M 203.242188 266.757812 "/>
<path style=" stroke:none;fill-rule:nonzero;fill:rgb(0%,0%,0%);fill-opacity:1;" d="M 228.648438 266.757812 L 241.351562 266.757812 L 241.351562 279.460938 L 228.648438 279.460938 Z M 228.648438 266.757812 "/>
<path style=" stroke:none;fill-rule:nonzero;fill:rgb(0%,0%,0%);fill-opacity:1;" d="M 241.351562 266.757812 L 254.054688 266.757812 L 254.054688 279.460938 L 241.351562 279.460938 Z M 241.351562 266.757812 "/>
<path style=" stroke:none;fill-rule:nonzero;fill:rgb(0%,0%,0%);fill-opacity:1;" d="M 254.054688 266.757812 L 266.757812 266.757812 L 266.757812 279.460938 L 254.054688 279.460938 Z M 254.054688 266.757812 "/>
<path style=" stroke:none;fill-rule:nonzero;fill:rgb(0%,0%,0%);fill-opacity:1;" d="M 266.757812 266.757812 L 279.460938 266.757812 L 279.460938 279.460938 L 266.757812 279.460938 Z M 266.757812 266.757812 "/>
<path style=" stroke:none;fill-rule:nonzero;fill:rgb(0%,0%,0%);fill-opacity:1;" d="M 292.164062 266.757812 L 304.863281 266.757812 L 304.863281 279.460938 L 292.164062 279.460938 Z M 292.164062 266.757812 "/>
<path style=" stroke:none;fill-rule:nonzero;fill:rgb(0%,0%,0%);fill-opacity:1;" d="M 317.566406 266.757812 L 330.269531 266.757812 L 330.269531 279.460938 L 317.566406 279.460938 Z M 317.566406 266.757812 "/>
<path style=" stroke:none;fill-rule:nonzero;fill:rgb(0%,0%,0%);fill-opacity:1;" d="M 342.972656 266.757812 L 355.675781 266.757812 L 355.675781 279.460938 L 342.972656 279.460938 Z M 342.972656 266.757812 "/>
<path style=" stroke:none;fill-rule:nonzero;fill:rgb(0%,0%,0%);fill-opacity:1;" d="M 355.675781 266.757812 L 368.378906 266.757812 L 368.378906 279.460938 L 355.675781 279.460938 Z M 355.675781 266.757812 "/>
<path style=" stroke:none;fill-rule:nonzero;fill:rgb(0%,0%,0%);fill-opacity:1;" d="M 381.082031 266.757812 L 393.785156 266.757812 L 393.785156 279.460938 L 381.082031 279.460938 Z M 381.082031 266.757812 "/>
<path style=" stroke:none;fill-rule:nonzero;fill:rgb(0%,0%,0%);fill-opacity:1;" d="M 393.785156 266.757812 L 406.488281 266.757812 L 406.488281 279.460938 L 393.785156 279.460938 Z M 393.785156 266.757812 "/>
<path style=" stroke:none;fill-rule:nonzero;fill:rgb(0%,0%,0%);fill-opacity:1;" d="M 406.488281 266.757812 L 419.1875 266.757812 L 419.1875 279.460938 L 406.488281 279.460938 Z M 406.488281 266.757812 "/>
<path style=" stroke:none;fill-rule:nonzero;fill:rgb(0%,0%,0%);fill-opacity:1;" d="M 419.1875 266.757812 L 431.890625 266.757812 L 431.890625 279.460938 L 419.1875 279.460938 Z M 419.1875 266.757812 "/>
<path style=" stroke:none;fill-rule:nonzero;fill:rgb(0%,0%,0%);fill-opacity:1;" d="M 25.40625 279.460938 L 38.109375 279.460938 L 38.109375 292.164062 L 25.40625 292.164062 Z M 25.40625 279.460938 "/>
<path style=" stroke:none;fill-rule:nonzero;fill:rgb(0%,0%,0%);fill-opacity:1;" d="M 38.109375 279.460938 L 50.8125 279.460938 L 50.8125 292.164062 L 38.109375 292.164062 Z M 38.109375 279.460938 "/>
<path style=" stroke:none;fill-rule:nonzero;fill:rgb(0%,0%,0%);fill-opacity:1;" d="M 50.8125 279.460938 L 63.511719 279.460938 L 63.511719 292.164062 L 50.8125 292.164062 Z M 50.8125 279.460938 "/>
<path style=" stroke:none;fill-rule:nonzero;fill:rgb(0%,0%,0%);fill-opacity:1;" d="M 88.917969 279.460938 L 101.621094 279.460938 L 101.621094 292.164062 L 88.917969 292.164062 Z M 88.917969 279.460938 "/>
<path style=" stroke:none;fill-rule:nonzero;fill:rgb(0%,0%,0%);fill-opacity:1;" d="M 101.621094 279.460938 L 114.324219 279.460938 L 114.324219 292.164062 L 101.621094 292.164062 Z M 101.621094 279.460938 "/>
<path style=" stroke:none;fill-rule:nonzero;fill:rgb(0%,0%,0%);fill-opacity:1;" d="M 139.730469 279.460938 L 152.433594 279.460938 L 152.433594 292.164062 L 139.730469 292.164062 Z M 139.730469 279.460938 "/>
<path style=" stroke:none;fill-rule:nonzero;fill:rgb(0%,0%,0%);fill-opacity:1;" d="M 165.136719 279.460938 L 177.835938 279.460938 L 177.835938 292.164062 L 165.136719 292.164062 Z M 165.136719 279.460938 "/>
<path style=" stroke:none;fill-rule:nonzero;fill:rgb(0%,0%,0%);fill-opacity:1;" d="M 203.242188 279.460938 L 215.945312 279.460938 L 215.945312 292.164062 L 203.242188 292.164062 Z M 203.242188 279.460938 "/>
<path style=" stroke:none;fill-rule:nonzero;fill:rgb(0%,0%,0%);fill-opacity:1;" d="M 215.945312 279.460938 L 228.648438 279.460938 L 228.648438 292.164062 L 215.945312 292.164062 Z M 215.945312 279.460938 "/>
<path style=" stroke:none;fill-rule:nonzero;fill:rgb(0%,0%,0%);fill-opacity:1;" d="M 228.648438 279.460938 L 241.351562 279.460938 L 241.351562 292.164062 L 228.648438 292.164062 Z M 228.648438 279.460938 "/>
<path style=" stroke:none;fill-rule:nonzero;fill:rgb(0%,0%,0%);fill-opacity:1;" d="M 279.460938 279.460938 L 292.164062 279.460938 L 292.164062 292.164062 L 279.460938 292.164062 Z M 279.460938 279.460938 "/>
<path style=" stroke:none;fill-rule:nonzero;fill:rgb(0%,0%,0%);fill-opacity:1;" d="M 292.164062 279.460938 L 304.863281 279.460938 L 304.863281 292.164062 L 292.164062 292.164062 Z M 292.164062 279.460938 "/>
<path style=" stroke:none;fill-rule:nonzero;fill:rgb(0%,0%,0%);fill-opacity:1;" d="M 304.863281 279.460938 L 317.566406 279.460938 L 317.566406 292.164062 L 304.863281 292.164062 Z M 304.863281 279.460938 "/>
<path style=" stroke:none;fill-rule:nonzero;fill:rgb(0%,0%,0%);fill-opacity:1;" d="M 330.269531 279.460938 L 342.972656 279.460938 L 342.972656 292.164062 L 330.269531 292.164062 Z M 330.269531 279.460938 "/>
<path style=" stroke:none;fill-rule:nonzero;fill:rgb(0%,0%,0%);fill-opacity:1;" d="M 342.972656 279.460938 L 355.675781 279.460938 L 355.675781 292.164062 L 342.972656 292.164062 Z M 342.972656 279.460938 "/>
<path style=" stroke:none;fill-rule:nonzero;fill:rgb(0%,0%,0%);fill-opacity:1;" d="M 381.082031 279.460938 L 393.785156 279.460938 L 393.785156 292.164062 L 381.082031 292.164062 Z M 381.082031 279.460938 "/>
<path style=" stroke:none;fill-rule:nonzero;fill:rgb(0%,0%,0%);fill-opacity:1;" d="M 393.785156 279.460938 L 406.488281 279.460938 L 406.488281 292.164062 L 393.785156 292.164062 Z M 393.785156 279.460938 "/>
<path style=" stroke:none;fill-rule:nonzero;fill:rgb(0%,0%,0%);fill-opacity:1;" d="M 431.890625 279.460938 L 444.59375 279.460938 L 444.59375 292.164062 L 431.890625 292.164062 Z M 431.890625 279.460938 "/>
<path style=" stroke:none;fill-rule:nonzero;fill:rgb(0%,0%,0%);fill-opacity:1;" d="M 25.40625 292.164062 L 38.109375 292.164062 L 38.109375 304.863281 L 25.40625 304.863281 Z M 25.40625 292.164062 "/>
<path style=" stroke:none;fill-rule:nonzero;fill:rgb(0%,0%,0%);fill-opacity:1;" d="M 76.214844 292.164062 L 88.917969 292.164062 L 88.917969 304.863281 L 76.214844 304.863281 Z M 76.214844 292.164062 "/>
<path style=" stroke:none;fill-rule:nonzero;fill:rgb(0%,0%,0%);fill-opacity:1;" d="M 88.917969 292.164062 L 101.621094 292.164062 L 101.621094 304.863281 L 88.917969 304.863281 Z M 88.917969 292.164062 "/>
<path style=" stroke:none;fill-rule:nonzero;fill:rgb(0%,0%,0%);fill-opacity:1;" d="M 165.136719 292.164062 L 177.835938 292.164062 L 177.835938 304.863281 L 165.136719 304.863281 Z M 165.136719 292.164062 "/>
<path style=" stroke:none;fill-rule:nonzero;fill:rgb(0%,0%,0%);fill-opacity:1;" d="M 190.539062 292.164062 L 203.242188 292.164062 L 203.242188 304.863281 L 190.539062 304.863281 Z M 190.539062 292.164062 "/>
<path style=" stroke:none;fill-rule:nonzero;fill:rgb(0%,0%,0%);fill-opacity:1;" d="M 228.648438 292.164062 L 241.351562 292.164062 L 241.351562 304.863281 L 228.648438 304.863281 Z M 228.648438 292.164062 "/>
<path style=" stroke:none;fill-rule:nonzero;fill:rgb(0%,0%,0%);fill-opacity:1;" d="M 241.351562 292.164062 L 254.054688 292.164062 L 254.054688 304.863281 L 241.351562 304.863281 Z M 241.351562 292.164062 "/>
<path style=" stroke:none;fill-rule:nonzero;fill:rgb(0%,0%,0%);fill-opacity:1;" d="M 254.054688 292.164062 L 266.757812 292.164062 L 266.757812 304.863281 L 254.054688 304.863281 Z M 254.054688 292.164062 "/>
<path style=" stroke:none;fill-rule:nonzero;fill:rgb(0%,0%,0%);fill-opacity:1;" d="M 279.460938 292.164062 L 292.164062 292.164062 L 292.164062 304.863281 L 279.460938 304.863281 Z M 279.460938 292.164062 "/>
<path style=" stroke:none;fill-rule:nonzero;fill:rgb(0%,0%,0%);fill-opacity:1;" d="M 304.863281 292.164062 L 317.566406 292.164062 L 317.566406 304.863281 L 304.863281 304.863281 Z M 304.863281 292.164062 "/>
<path style=" stroke:none;fill-rule:nonzero;fill:rgb(0%,0%,0%);fill-opacity:1;" d="M 317.566406 292.164062 L 330.269531 292.164062 L 330.269531 304.863281 L 317.566406 304.863281 Z M 317.566406 292.164062 "/>
<path style=" stroke:none;fill-rule:nonzero;fill:rgb(0%,0%,0%);fill-opacity:1;" d="M 368.378906 292.164062 L 381.082031 292.164062 L 381.082031 304.863281 L 368.378906 304.863281 Z M 368.378906 292.164062 "/>
<path style=" stroke:none;fill-rule:nonzero;fill:rgb(0%,0%,0%);fill-opacity:1;" d="M 381.082031 292.164062 L 393.785156 292.164062 L 393.785156 304.863281 L 381.082031 304.863281 Z M 381.082031 292.164062 "/>
<path style=" stroke:none;fill-rule:nonzero;fill:rgb(0%,0%,0%);fill-opacity:1;" d="M 406.488281 292.164062 L 419.1875 292.164062 L 419.1875 304.863281 L 406.488281 304.863281 Z M 406.488281 292.164062 "/>
<path style=" stroke:none;fill-rule:nonzero;fill:rgb(0%,0%,0%);fill-opacity:1;" d="M 25.40625 304.863281 L 38.109375 304.863281 L 38.109375 317.566406 L 25.40625 317.566406 Z M 25.40625 304.863281 "/>
<path style=" stroke:none;fill-rule:nonzero;fill:rgb(0%,0%,0%);fill-opacity:1;" d="M 50.8125 304.863281 L 63.511719 304.863281 L 63.511719 317.566406 L 50.8125 317.566406 Z M 50.8125 304.863281 "/>
<path style=" stroke:none;fill-rule:nonzero;fill:rgb(0%,0%,0%);fill-opacity:1;" d="M 101.621094 304.863281 L 114.324219 304.863281 L 114.324219 317.566406 L 101.621094 317.566406 Z M 101.621094 304.863281 "/>
<path style=" stroke:none;fill-rule:nonzero;fill:rgb(0%,0%,0%);fill-opacity:1;" d="M 127.027344 304.863281 L 139.730469 304.863281 L 139.730469 317.566406 L 127.027344 317.566406 Z M 127.027344 304.863281 "/>
<path style=" stroke:none;fill-rule:nonzero;fill:rgb(0%,0%,0%);fill-opacity:1;" d="M 165.136719 304.863281 L 177.835938 304.863281 L 177.835938 317.566406 L 165.136719 317.566406 Z M 165.136719 304.863281 "/>
<path style=" stroke:none;fill-rule:nonzero;fill:rgb(0%,0%,0%);fill-opacity:1;" d="M 190.539062 304.863281 L 203.242188 304.863281 L 203.242188 317.566406 L 190.539062 317.566406 Z M 190.539062 304.863281 "/>
<path style=" stroke:none;fill-rule:nonzero;fill:rgb(0%,0%,0%);fill-opacity:1;" d="M 203.242188 304.863281 L 215.945312 304.863281 L 215.945312 317.566406 L 203.242188 317.566406 Z M 203.242188 304.863281 "/>
<path style=" stroke:none;fill-rule:nonzero;fill:rgb(0%,0%,0%);fill-opacity:1;" d="M 215.945312 304.863281 L 228.648438 304.863281 L 228.648438 317.566406 L 215.945312 317.566406 Z M 215.945312 304.863281 "/>
<path style=" stroke:none;fill-rule:nonzero;fill:rgb(0%,0%,0%);fill-opacity:1;" d="M 228.648438 304.863281 L 241.351562 304.863281 L 241.351562 317.566406 L 228.648438 317.566406 Z M 228.648438 304.863281 "/>
<path style=" stroke:none;fill-rule:nonzero;fill:rgb(0%,0%,0%);fill-opacity:1;" d="M 241.351562 304.863281 L 254.054688 304.863281 L 254.054688 317.566406 L 241.351562 317.566406 Z M 241.351562 304.863281 "/>
<path style=" stroke:none;fill-rule:nonzero;fill:rgb(0%,0%,0%);fill-opacity:1;" d="M 279.460938 304.863281 L 292.164062 304.863281 L 292.164062 317.566406 L 279.460938 317.566406 Z M 279.460938 304.863281 "/>
<path style=" stroke:none;fill-rule:nonzero;fill:rgb(0%,0%,0%);fill-opacity:1;" d="M 292.164062 304.863281 L 304.863281 304.863281 L 304.863281 317.566406 L 292.164062 317.566406 Z M 292.164062 304.863281 "/>
<path style=" stroke:none;fill-rule:nonzero;fill:rgb(0%,0%,0%);fill-opacity:1;" d="M 304.863281 304.863281 L 317.566406 304.863281 L 317.566406 317.566406 L 304.863281 317.566406 Z M 304.863281 304.863281 "/>
<path style=" stroke:none;fill-rule:nonzero;fill:rgb(0%,0%,0%);fill-opacity:1;" d="M 368.378906 304.863281 L 381.082031 304.863281 L 381.082031 317.566406 L 368.378906 317.566406 Z M 368.378906 304.863281 "/>
<path style=" stroke:none;fill-rule:nonzero;fill:rgb(0%,0%,0%);fill-opacity:1;" d="M 381.082031 304.863281 L 393.785156 304.863281 L 393.785156 317.566406 L 381.082031 317.566406 Z M 381.082031 304.863281 "/>
<path style=" stroke:none;fill-rule:nonzero;fill:rgb(0%,0%,0%);fill-opacity:1;" d="M 406.488281 304.863281 L 419.1875 304.863281 L 419.1875 317.566406 L 406.488281 317.566406 Z M 406.488281 304.863281 "/>
<path style=" stroke:none;fill-rule:nonzero;fill:rgb(0%,0%,0%);fill-opacity:1;" d="M 419.1875 304.863281 L 431.890625 304.863281 L 431.890625 317.566406 L 419.1875 317.566406 Z M 419.1875 304.863281 "/>
<path style=" stroke:none;fill-rule:nonzero;fill:rgb(0%,0%,0%);fill-opacity:1;" d="M 25.40625 317.566406 L 38.109375 317.566406 L 38.109375 330.269531 L 25.40625 330.269531 Z M 25.40625 317.566406 "/>
<path style=" stroke:none;fill-rule:nonzero;fill:rgb(0%,0%,0%);fill-opacity:1;" d="M 50.8125 317.566406 L 63.511719 317.566406 L 63.511719 330.269531 L 50.8125 330.269531 Z M 50.8125 317.566406 "/>
<path style=" stroke:none;fill-rule:nonzero;fill:rgb(0%,0%,0%);fill-opacity:1;" d="M 63.511719 317.566406 L 76.214844 317.566406 L 76.214844 330.269531 L 63.511719 330.269531 Z M 63.511719 317.566406 "/>
<path style=" stroke:none;fill-rule:nonzero;fill:rgb(0%,0%,0%);fill-opacity:1;" d="M 114.324219 317.566406 L 127.027344 317.566406 L 127.027344 330.269531 L 114.324219 330.269531 Z M 114.324219 317.566406 "/>
<path style=" stroke:none;fill-rule:nonzero;fill:rgb(0%,0%,0%);fill-opacity:1;" d="M 139.730469 317.566406 L 152.433594 317.566406 L 152.433594 330.269531 L 139.730469 330.269531 Z M 139.730469 317.566406 "/>
<path style=" stroke:none;fill-rule:nonzero;fill:rgb(0%,0%,0%);fill-opacity:1;" d="M 152.433594 317.566406 L 165.136719 317.566406 L 165.136719 330.269531 L 152.433594 330.269531 Z M 152.433594 317.566406 "/>
<path style=" stroke:none;fill-rule:nonzero;fill:rgb(0%,0%,0%);fill-opacity:1;" d="M 165.136719 317.566406 L 177.835938 317.566406 L 177.835938 330.269531 L 165.136719 330.269531 Z M 165.136719 317.566406 "/>
<path style=" stroke:none;fill-rule:nonzero;fill:rgb(0%,0%,0%);fill-opacity:1;" d="M 254.054688 317.566406 L 266.757812 317.566406 L 266.757812 330.269531 L 254.054688 330.269531 Z M 254.054688 317.566406 "/>
<path style=" stroke:none;fill-rule:nonzero;fill:rgb(0%,0%,0%);fill-opacity:1;" d="M 304.863281 317.566406 L 317.566406 317.566406 L 317.566406 330.269531 L 304.863281 330.269531 Z M 304.863281 317.566406 "/>
<path style=" stroke:none;fill-rule:nonzero;fill:rgb(0%,0%,0%);fill-opacity:1;" d="M 330.269531 317.566406 L 342.972656 317.566406 L 342.972656 330.269531 L 330.269531 330.269531 Z M 330.269531 317.566406 "/>
<path style=" stroke:none;fill-rule:nonzero;fill:rgb(0%,0%,0%);fill-opacity:1;" d="M 355.675781 317.566406 L 368.378906 317.566406 L 368.378906 330.269531 L 355.675781 330.269531 Z M 355.675781 317.566406 "/>
<path style=" stroke:none;fill-rule:nonzero;fill:rgb(0%,0%,0%);fill-opacity:1;" d="M 393.785156 317.566406 L 406.488281 317.566406 L 406.488281 330.269531 L 393.785156 330.269531 Z M 393.785156 317.566406 "/>
<path style=" stroke:none;fill-rule:nonzero;fill:rgb(0%,0%,0%);fill-opacity:1;" d="M 406.488281 317.566406 L 419.1875 317.566406 L 419.1875 330.269531 L 406.488281 330.269531 Z M 406.488281 317.566406 "/>
<path style=" stroke:none;fill-rule:nonzero;fill:rgb(0%,0%,0%);fill-opacity:1;" d="M 25.40625 330.269531 L 38.109375 330.269531 L 38.109375 342.972656 L 25.40625 342.972656 Z M 25.40625 330.269531 "/>
<path style=" stroke:none;fill-rule:nonzero;fill:rgb(0%,0%,0%);fill-opacity:1;" d="M 38.109375 330.269531 L 50.8125 330.269531 L 50.8125 342.972656 L 38.109375 342.972656 Z M 38.109375 330.269531 "/>
<path style=" stroke:none;fill-rule:nonzero;fill:rgb(0%,0%,0%);fill-opacity:1;" d="M 50.8125 330.269531 L 63.511719 330.269531 L 63.511719 342.972656 L 50.8125 342.972656 Z M 50.8125 330.269531 "/>
<path style=" stroke:none;fill-rule:nonzero;fill:rgb(0%,0%,0%);fill-opacity:1;" d="M 76.214844 330.269531 L 88.917969 330.269531 L 88.917969 342.972656 L 76.214844 342.972656 Z M 76.214844 330.269531 "/>
<path style=" stroke:none;fill-rule:nonzero;fill:rgb(0%,0%,0%);fill-opacity:1;" d="M 88.917969 330.269531 L 101.621094 330.269531 L 101.621094 342.972656 L 88.917969 342.972656 Z M 88.917969 330.269531 "/>
<path style=" stroke:none;fill-rule:nonzero;fill:rgb(0%,0%,0%);fill-opacity:1;" d="M 101.621094 330.269531 L 114.324219 330.269531 L 114.324219 342.972656 L 101.621094 342.972656 Z M 101.621094 330.269531 "/>
<path style=" stroke:none;fill-rule:nonzero;fill:rgb(0%,0%,0%);fill-opacity:1;" d="M 127.027344 330.269531 L 139.730469 330.269531 L 139.730469 342.972656 L 127.027344 342.972656 Z M 127.027344 330.269531 "/>
<path style=" stroke:none;fill-rule:nonzero;fill:rgb(0%,0%,0%);fill-opacity:1;" d="M 139.730469 330.269531 L 152.433594 330.269531 L 152.433594 342.972656 L 139.730469 342.972656 Z M 139.730469 330.269531 "/>
<path style=" stroke:none;fill-rule:nonzero;fill:rgb(0%,0%,0%);fill-opacity:1;" d="M 165.136719 330.269531 L 177.835938 330.269531 L 177.835938 342.972656 L 165.136719 342.972656 Z M 165.136719 330.269531 "/>
<path style=" stroke:none;fill-rule:nonzero;fill:rgb(0%,0%,0%);fill-opacity:1;" d="M 190.539062 330.269531 L 203.242188 330.269531 L 203.242188 342.972656 L 190.539062 342.972656 Z M 190.539062 330.269531 "/>
<path style=" stroke:none;fill-rule:nonzero;fill:rgb(0%,0%,0%);fill-opacity:1;" d="M 215.945312 330.269531 L 228.648438 330.269531 L 228.648438 342.972656 L 215.945312 342.972656 Z M 215.945312 330.269531 "/>
<path style=" stroke:none;fill-rule:nonzero;fill:rgb(0%,0%,0%);fill-opacity:1;" d="M 266.757812 330.269531 L 279.460938 330.269531 L 279.460938 342.972656 L 266.757812 342.972656 Z M 266.757812 330.269531 "/>
<path style=" stroke:none;fill-rule:nonzero;fill:rgb(0%,0%,0%);fill-opacity:1;" d="M 330.269531 330.269531 L 342.972656 330.269531 L 342.972656 342.972656 L 330.269531 342.972656 Z M 330.269531 330.269531 "/>
<path style=" stroke:none;fill-rule:nonzero;fill:rgb(0%,0%,0%);fill-opacity:1;" d="M 342.972656 330.269531 L 355.675781 330.269531 L 355.675781 342.972656 L 342.972656 342.972656 Z M 342.972656 330.269531 "/>
<path style=" stroke:none;fill-rule:nonzero;fill:rgb(0%,0%,0%);fill-opacity:1;" d="M 355.675781 330.269531 L 368.378906 330.269531 L 368.378906 342.972656 L 355.675781 342.972656 Z M 355.675781 330.269531 "/>
<path style=" stroke:none;fill-rule:nonzero;fill:rgb(0%,0%,0%);fill-opacity:1;" d="M 368.378906 330.269531 L 381.082031 330.269531 L 381.082031 342.972656 L 368.378906 342.972656 Z M 368.378906 330.269531 "/>
<path style=" stroke:none;fill-rule:nonzero;fill:rgb(0%,0%,0%);fill-opacity:1;" d="M 381.082031 330.269531 L 393.785156 330.269531 L 393.785156 342.972656 L 381.082031 342.972656 Z M 381.082031 330.269531 "/>
<path style=" stroke:none;fill-rule:nonzero;fill:rgb(0%,0%,0%);fill-opacity:1;" d="M 393.785156 330.269531 L 406.488281 330.269531 L 406.488281 342.972656 L 393.785156 342.972656 Z M 393.785156 330.269531 "/>
<path style=" stroke:none;fill-rule:nonzero;fill:rgb(0%,0%,0%);fill-opacity:1;" d="M 127.027344 342.972656 L 139.730469 342.972656 L 139.730469 355.675781 L 127.027344 355.675781 Z M 127.027344 342.972656 "/>
<path style=" stroke:none;fill-rule:nonzero;fill:rgb(0%,0%,0%);fill-opacity:1;" d="M 165.136719 342.972656 L 177.835938 342.972656 L 177.835938 355.675781 L 165.136719 355.675781 Z M 165.136719 342.972656 "/>
<path style=" stroke:none;fill-rule:nonzero;fill:rgb(0%,0%,0%);fill-opacity:1;" d="M 177.835938 342.972656 L 190.539062 342.972656 L 190.539062 355.675781 L 177.835938 355.675781 Z M 177.835938 342.972656 "/>
<path style=" stroke:none;fill-rule:nonzero;fill:rgb(0%,0%,0%);fill-opacity:1;" d="M 215.945312 342.972656 L 228.648438 342.972656 L 228.648438 355.675781 L 215.945312 355.675781 Z M 215.945312 342.972656 "/>
<path style=" stroke:none;fill-rule:nonzero;fill:rgb(0%,0%,0%);fill-opacity:1;" d="M 228.648438 342.972656 L 241.351562 342.972656 L 241.351562 355.675781 L 228.648438 355.675781 Z M 228.648438 342.972656 "/>
<path style=" stroke:none;fill-rule:nonzero;fill:rgb(0%,0%,0%);fill-opacity:1;" d="M 254.054688 342.972656 L 266.757812 342.972656 L 266.757812 355.675781 L 254.054688 355.675781 Z M 254.054688 342.972656 "/>
<path style=" stroke:none;fill-rule:nonzero;fill:rgb(0%,0%,0%);fill-opacity:1;" d="M 266.757812 342.972656 L 279.460938 342.972656 L 279.460938 355.675781 L 266.757812 355.675781 Z M 266.757812 342.972656 "/>
<path style=" stroke:none;fill-rule:nonzero;fill:rgb(0%,0%,0%);fill-opacity:1;" d="M 279.460938 342.972656 L 292.164062 342.972656 L 292.164062 355.675781 L 279.460938 355.675781 Z M 279.460938 342.972656 "/>
<path style=" stroke:none;fill-rule:nonzero;fill:rgb(0%,0%,0%);fill-opacity:1;" d="M 330.269531 342.972656 L 342.972656 342.972656 L 342.972656 355.675781 L 330.269531 355.675781 Z M 330.269531 342.972656 "/>
<path style=" stroke:none;fill-rule:nonzero;fill:rgb(0%,0%,0%);fill-opacity:1;" d="M 381.082031 342.972656 L 393.785156 342.972656 L 393.785156 355.675781 L 381.082031 355.675781 Z M 381.082031 342.972656 "/>
<path style=" stroke:none;fill-rule:nonzero;fill:rgb(0%,0%,0%);fill-opacity:1;" d="M 406.488281 342.972656 L 419.1875 342.972656 L 419.1875 355.675781 L 406.488281 355.675781 Z M 406.488281 342.972656 "/>
<path style=" stroke:none;fill-rule:nonzero;fill:rgb(0%,0%,0%);fill-opacity:1;" d="M 431.890625 342.972656 L 444.59375 342.972656 L 444.59375 355.675781 L 431.890625 355.675781 Z M 431.890625 342.972656 "/>
<path style=" stroke:none;fill-rule:nonzero;fill:rgb(0%,0%,0%);fill-opacity:1;" d="M 139.730469 355.675781 L 152.433594 355.675781 L 152.433594 368.378906 L 139.730469 368.378906 Z M 139.730469 355.675781 "/>
<path style=" stroke:none;fill-rule:nonzero;fill:rgb(0%,0%,0%);fill-opacity:1;" d="M 152.433594 355.675781 L 165.136719 355.675781 L 165.136719 368.378906 L 152.433594 368.378906 Z M 152.433594 355.675781 "/>
<path style=" stroke:none;fill-rule:nonzero;fill:rgb(0%,0%,0%);fill-opacity:1;" d="M 190.539062 355.675781 L 203.242188 355.675781 L 203.242188 368.378906 L 190.539062 368.378906 Z M 190.539062 355.675781 "/>
<path style=" stroke:none;fill-rule:nonzero;fill:rgb(0%,0%,0%);fill-opacity:1;" d="M 203.242188 355.675781 L 215.945312 355.675781 L 215.945312 368.378906 L 203.242188 368.378906 Z M 203.242188 355.675781 "/>
<path style=" stroke:none;fill-rule:nonzero;fill:rgb(0%,0%,0%);fill-opacity:1;" d="M 215.945312 355.675781 L 228.648438 355.675781 L 228.648438 368.378906 L 215.945312 368.378906 Z M 215.945312 355.675781 "/>
<path style=" stroke:none;fill-rule:nonzero;fill:rgb(0%,0%,0%);fill-opacity:1;" d="M 228.648438 355.675781 L 241.351562 355.675781 L 241.351562 368.378906 L 228.648438 368.378906 Z M 228.648438 355.675781 "/>
<path style=" stroke:none;fill-rule:nonzero;fill:rgb(0%,0%,0%);fill-opacity:1;" d="M 254.054688 355.675781 L 266.757812 355.675781 L 266.757812 368.378906 L 254.054688 368.378906 Z M 254.054688 355.675781 "/>
<path style=" stroke:none;fill-rule:nonzero;fill:rgb(0%,0%,0%);fill-opacity:1;" d="M 279.460938 355.675781 L 292.164062 355.675781 L 292.164062 368.378906 L 279.460938 368.378906 Z M 279.460938 355.675781 "/>
<path style=" stroke:none;fill-rule:nonzero;fill:rgb(0%,0%,0%);fill-opacity:1;" d="M 292.164062 355.675781 L 304.863281 355.675781 L 304.863281 368.378906 L 292.164062 368.378906 Z M 292.164062 355.675781 "/>
<path style=" stroke:none;fill-rule:nonzero;fill:rgb(0%,0%,0%);fill-opacity:1;" d="M 317.566406 355.675781 L 330.269531 355.675781 L 330.269531 368.378906 L 317.566406 368.378906 Z M 317.566406 355.675781 "/>
<path style=" stroke:none;fill-rule:nonzero;fill:rgb(0%,0%,0%);fill-opacity:1;" d="M 330.269531 355.675781 L 342.972656 355.675781 L 342.972656 368.378906 L 330.269531 368.378906 Z M 330.269531 355.675781 "/>
<path style=" stroke:none;fill-rule:nonzero;fill:rgb(0%,0%,0%);fill-opacity:1;" d="M 355.675781 355.675781 L 368.378906 355.675781 L 368.378906 368.378906 L 355.675781 368.378906 Z M 355.675781 355.675781 "/>
<path style=" stroke:none;fill-rule:nonzero;fill:rgb(0%,0%,0%);fill-opacity:1;" d="M 381.082031 355.675781 L 393.785156 355.675781 L 393.785156 368.378906 L 381.082031 368.378906 Z M 381.082031 355.675781 "/>
<path style=" stroke:none;fill-rule:nonzero;fill:rgb(0%,0%,0%);fill-opacity:1;" d="M 406.488281 355.675781 L 419.1875 355.675781 L 419.1875 368.378906 L 406.488281 368.378906 Z M 406.488281 355.675781 "/>
<path style=" stroke:none;fill-rule:nonzero;fill:rgb(0%,0%,0%);fill-opacity:1;" d="M 419.1875 355.675781 L 431.890625 355.675781 L 431.890625 368.378906 L 419.1875 368.378906 Z M 419.1875 355.675781 "/>
<path style=" stroke:none;fill-rule:nonzero;fill:rgb(0%,0%,0%);fill-opacity:1;" d="M 165.136719 368.378906 L 177.835938 368.378906 L 177.835938 381.082031 L 165.136719 381.082031 Z M 165.136719 368.378906 "/>
<path style=" stroke:none;fill-rule:nonzero;fill:rgb(0%,0%,0%);fill-opacity:1;" d="M 190.539062 368.378906 L 203.242188 368.378906 L 203.242188 381.082031 L 190.539062 381.082031 Z M 190.539062 368.378906 "/>
<path style=" stroke:none;fill-rule:nonzero;fill:rgb(0%,0%,0%);fill-opacity:1;" d="M 203.242188 368.378906 L 215.945312 368.378906 L 215.945312 381.082031 L 203.242188 381.082031 Z M 203.242188 368.378906 "/>
<path style=" stroke:none;fill-rule:nonzero;fill:rgb(0%,0%,0%);fill-opacity:1;" d="M 228.648438 368.378906 L 241.351562 368.378906 L 241.351562 381.082031 L 228.648438 381.082031 Z M 228.648438 368.378906 "/>
<path style=" stroke:none;fill-rule:nonzero;fill:rgb(0%,0%,0%);fill-opacity:1;" d="M 317.566406 368.378906 L 330.269531 368.378906 L 330.269531 381.082031 L 317.566406 381.082031 Z M 317.566406 368.378906 "/>
<path style=" stroke:none;fill-rule:nonzero;fill:rgb(0%,0%,0%);fill-opacity:1;" d="M 330.269531 368.378906 L 342.972656 368.378906 L 342.972656 381.082031 L 330.269531 381.082031 Z M 330.269531 368.378906 "/>
<path style=" stroke:none;fill-rule:nonzero;fill:rgb(0%,0%,0%);fill-opacity:1;" d="M 381.082031 368.378906 L 393.785156 368.378906 L 393.785156 381.082031 L 381.082031 381.082031 Z M 381.082031 368.378906 "/>
<path style=" stroke:none;fill-rule:nonzero;fill:rgb(0%,0%,0%);fill-opacity:1;" d="M 393.785156 368.378906 L 406.488281 368.378906 L 406.488281 381.082031 L 393.785156 381.082031 Z M 393.785156 368.378906 "/>
<path style=" stroke:none;fill-rule:nonzero;fill:rgb(0%,0%,0%);fill-opacity:1;" d="M 406.488281 368.378906 L 419.1875 368.378906 L 419.1875 381.082031 L 406.488281 381.082031 Z M 406.488281 368.378906 "/>
<path style=" stroke:none;fill-rule:nonzero;fill:rgb(0%,0%,0%);fill-opacity:1;" d="M 152.433594 381.082031 L 165.136719 381.082031 L 165.136719 393.785156 L 152.433594 393.785156 Z M 152.433594 381.082031 "/>
<path style=" stroke:none;fill-rule:nonzero;fill:rgb(0%,0%,0%);fill-opacity:1;" d="M 165.136719 381.082031 L 177.835938 381.082031 L 177.835938 393.785156 L 165.136719 393.785156 Z M 165.136719 381.082031 "/>
<path style=" stroke:none;fill-rule:nonzero;fill:rgb(0%,0%,0%);fill-opacity:1;" d="M 254.054688 381.082031 L 266.757812 381.082031 L 266.757812 393.785156 L 254.054688 393.785156 Z M 254.054688 381.082031 "/>
<path style=" stroke:none;fill-rule:nonzero;fill:rgb(0%,0%,0%);fill-opacity:1;" d="M 292.164062 381.082031 L 304.863281 381.082031 L 304.863281 393.785156 L 292.164062 393.785156 Z M 292.164062 381.082031 "/>
<path style=" stroke:none;fill-rule:nonzero;fill:rgb(0%,0%,0%);fill-opacity:1;" d="M 330.269531 381.082031 L 342.972656 381.082031 L 342.972656 393.785156 L 330.269531 393.785156 Z M 330.269531 381.082031 "/>
<path style=" stroke:none;fill-rule:nonzero;fill:rgb(0%,0%,0%);fill-opacity:1;" d="M 342.972656 381.082031 L 355.675781 381.082031 L 355.675781 393.785156 L 342.972656 393.785156 Z M 342.972656 381.082031 "/>
<path style=" stroke:none;fill-rule:nonzero;fill:rgb(0%,0%,0%);fill-opacity:1;" d="M 355.675781 381.082031 L 368.378906 381.082031 L 368.378906 393.785156 L 355.675781 393.785156 Z M 355.675781 381.082031 "/>
<path style=" stroke:none;fill-rule:nonzero;fill:rgb(0%,0%,0%);fill-opacity:1;" d="M 368.378906 381.082031 L 381.082031 381.082031 L 381.082031 393.785156 L 368.378906 393.785156 Z M 368.378906 381.082031 "/>
<path style=" stroke:none;fill-rule:nonzero;fill:rgb(0%,0%,0%);fill-opacity:1;" d="M 381.082031 381.082031 L 393.785156 381.082031 L 393.785156 393.785156 L 381.082031 393.785156 Z M 381.082031 381.082031 "/>
<path style=" stroke:none;fill-rule:nonzero;fill:rgb(0%,0%,0%);fill-opacity:1;" d="M 393.785156 381.082031 L 406.488281 381.082031 L 406.488281 393.785156 L 393.785156 393.785156 Z M 393.785156 381.082031 "/>
<path style=" stroke:none;fill-rule:nonzero;fill:rgb(0%,0%,0%);fill-opacity:1;" d="M 419.1875 381.082031 L 431.890625 381.082031 L 431.890625 393.785156 L 419.1875 393.785156 Z M 419.1875 381.082031 "/>
<path style=" stroke:none;fill-rule:nonzero;fill:rgb(0%,0%,0%);fill-opacity:1;" d="M 431.890625 381.082031 L 444.59375 381.082031 L 444.59375 393.785156 L 431.890625 393.785156 Z M 431.890625 381.082031 "/>
<path style=" stroke:none;fill-rule:nonzero;fill:rgb(0%,0%,0%);fill-opacity:1;" d="M 139.730469 393.785156 L 152.433594 393.785156 L 152.433594 406.488281 L 139.730469 406.488281 Z M 139.730469 393.785156 "/>
<path style=" stroke:none;fill-rule:nonzero;fill:rgb(0%,0%,0%);fill-opacity:1;" d="M 177.835938 393.785156 L 190.539062 393.785156 L 190.539062 406.488281 L 177.835938 406.488281 Z M 177.835938 393.785156 "/>
<path style=" stroke:none;fill-rule:nonzero;fill:rgb(0%,0%,0%);fill-opacity:1;" d="M 228.648438 393.785156 L 241.351562 393.785156 L 241.351562 406.488281 L 228.648438 406.488281 Z M 228.648438 393.785156 "/>
<path style=" stroke:none;fill-rule:nonzero;fill:rgb(0%,0%,0%);fill-opacity:1;" d="M 279.460938 393.785156 L 292.164062 393.785156 L 292.164062 406.488281 L 279.460938 406.488281 Z M 279.460938 393.785156 "/>
<path style=" stroke:none;fill-rule:nonzero;fill:rgb(0%,0%,0%);fill-opacity:1;" d="M 292.164062 393.785156 L 304.863281 393.785156 L 304.863281 406.488281 L 292.164062 406.488281 Z M 292.164062 393.785156 "/>
<path style=" stroke:none;fill-rule:nonzero;fill:rgb(0%,0%,0%);fill-opacity:1;" d="M 304.863281 393.785156 L 317.566406 393.785156 L 317.566406 406.488281 L 304.863281 406.488281 Z M 304.863281 393.785156 "/>
<path style=" stroke:none;fill-rule:nonzero;fill:rgb(0%,0%,0%);fill-opacity:1;" d="M 317.566406 393.785156 L 330.269531 393.785156 L 330.269531 406.488281 L 317.566406 406.488281 Z M 317.566406 393.785156 "/>
<path style=" stroke:none;fill-rule:nonzero;fill:rgb(0%,0%,0%);fill-opacity:1;" d="M 330.269531 393.785156 L 342.972656 393.785156 L 342.972656 406.488281 L 330.269531 406.488281 Z M 330.269531 393.785156 "/>
<path style=" stroke:none;fill-rule:nonzero;fill:rgb(0%,0%,0%);fill-opacity:1;" d="M 342.972656 393.785156 L 355.675781 393.785156 L 355.675781 406.488281 L 342.972656 406.488281 Z M 342.972656 393.785156 "/>
<path style=" stroke:none;fill-rule:nonzero;fill:rgb(0%,0%,0%);fill-opacity:1;" d="M 368.378906 393.785156 L 381.082031 393.785156 L 381.082031 406.488281 L 368.378906 406.488281 Z M 368.378906 393.785156 "/>
<path style=" stroke:none;fill-rule:nonzero;fill:rgb(0%,0%,0%);fill-opacity:1;" d="M 381.082031 393.785156 L 393.785156 393.785156 L 393.785156 406.488281 L 381.082031 406.488281 Z M 381.082031 393.785156 "/>
<path style=" stroke:none;fill-rule:nonzero;fill:rgb(0%,0%,0%);fill-opacity:1;" d="M 393.785156 393.785156 L 406.488281 393.785156 L 406.488281 406.488281 L 393.785156 406.488281 Z M 393.785156 393.785156 "/>
<path style=" stroke:none;fill-rule:nonzero;fill:rgb(0%,0%,0%);fill-opacity:1;" d="M 431.890625 393.785156 L 444.59375 393.785156 L 444.59375 406.488281 L 431.890625 406.488281 Z M 431.890625 393.785156 "/>
<path style=" stroke:none;fill-rule:nonzero;fill:rgb(0%,0%,0%);fill-opacity:1;" d="M 139.730469 406.488281 L 152.433594 406.488281 L 152.433594 419.1875 L 139.730469 419.1875 Z M 139.730469 406.488281 "/>
<path style=" stroke:none;fill-rule:nonzero;fill:rgb(0%,0%,0%);fill-opacity:1;" d="M 152.433594 406.488281 L 165.136719 406.488281 L 165.136719 419.1875 L 152.433594 419.1875 Z M 152.433594 406.488281 "/>
<path style=" stroke:none;fill-rule:nonzero;fill:rgb(0%,0%,0%);fill-opacity:1;" d="M 165.136719 406.488281 L 177.835938 406.488281 L 177.835938 419.1875 L 165.136719 419.1875 Z M 165.136719 406.488281 "/>
<path style=" stroke:none;fill-rule:nonzero;fill:rgb(0%,0%,0%);fill-opacity:1;" d="M 190.539062 406.488281 L 203.242188 406.488281 L 203.242188 419.1875 L 190.539062 419.1875 Z M 190.539062 406.488281 "/>
<path style=" stroke:none;fill-rule:nonzero;fill:rgb(0%,0%,0%);fill-opacity:1;" d="M 228.648438 406.488281 L 241.351562 406.488281 L 241.351562 419.1875 L 228.648438 419.1875 Z M 228.648438 406.488281 "/>
<path style=" stroke:none;fill-rule:nonzero;fill:rgb(0%,0%,0%);fill-opacity:1;" d="M 279.460938 406.488281 L 292.164062 406.488281 L 292.164062 419.1875 L 279.460938 419.1875 Z M 279.460938 406.488281 "/>
<path style=" stroke:none;fill-rule:nonzero;fill:rgb(0%,0%,0%);fill-opacity:1;" d="M 317.566406 406.488281 L 330.269531 406.488281 L 330.269531 419.1875 L 317.566406 419.1875 Z M 317.566406 406.488281 "/>
<path style=" stroke:none;fill-rule:nonzero;fill:rgb(0%,0%,0%);fill-opacity:1;" d="M 330.269531 406.488281 L 342.972656 406.488281 L 342.972656 419.1875 L 330.269531 419.1875 Z M 330.269531 406.488281 "/>
<path style=" stroke:none;fill-rule:nonzero;fill:rgb(0%,0%,0%);fill-opacity:1;" d="M 342.972656 406.488281 L 355.675781 406.488281 L 355.675781 419.1875 L 342.972656 419.1875 Z M 342.972656 406.488281 "/>
<path style=" stroke:none;fill-rule:nonzero;fill:rgb(0%,0%,0%);fill-opacity:1;" d="M 368.378906 406.488281 L 381.082031 406.488281 L 381.082031 419.1875 L 368.378906 419.1875 Z M 368.378906 406.488281 "/>
<path style=" stroke:none;fill-rule:nonzero;fill:rgb(0%,0%,0%);fill-opacity:1;" d="M 381.082031 406.488281 L 393.785156 406.488281 L 393.785156 419.1875 L 381.082031 419.1875 Z M 381.082031 406.488281 "/>
<path style=" stroke:none;fill-rule:nonzero;fill:rgb(0%,0%,0%);fill-opacity:1;" d="M 419.1875 406.488281 L 431.890625 406.488281 L 431.890625 419.1875 L 419.1875 419.1875 Z M 419.1875 406.488281 "/>
<path style=" stroke:none;fill-rule:nonzero;fill:rgb(0%,0%,0%);fill-opacity:1;" d="M 431.890625 406.488281 L 444.59375 406.488281 L 444.59375 419.1875 L 431.890625 419.1875 Z M 431.890625 406.488281 "/>
<path style=" stroke:none;fill-rule:nonzero;fill:rgb(0%,0%,0%);fill-opacity:1;" d="M 152.433594 419.1875 L 165.136719 419.1875 L 165.136719 431.890625 L 152.433594 431.890625 Z M 152.433594 419.1875 "/>
<path style=" stroke:none;fill-rule:nonzero;fill:rgb(0%,0%,0%);fill-opacity:1;" d="M 177.835938 419.1875 L 190.539062 419.1875 L 190.539062 431.890625 L 177.835938 431.890625 Z M 177.835938 419.1875 "/>
<path style=" stroke:none;fill-rule:nonzero;fill:rgb(0%,0%,0%);fill-opacity:1;" d="M 190.539062 419.1875 L 203.242188 419.1875 L 203.242188 431.890625 L 190.539062 431.890625 Z M 190.539062 419.1875 "/>
<path style=" stroke:none;fill-rule:nonzero;fill:rgb(0%,0%,0%);fill-opacity:1;" d="M 203.242188 419.1875 L 215.945312 419.1875 L 215.945312 431.890625 L 203.242188 431.890625 Z M 203.242188 419.1875 "/>
<path style=" stroke:none;fill-rule:nonzero;fill:rgb(0%,0%,0%);fill-opacity:1;" d="M 215.945312 419.1875 L 228.648438 419.1875 L 228.648438 431.890625 L 215.945312 431.890625 Z M 215.945312 419.1875 "/>
<path style=" stroke:none;fill-rule:nonzero;fill:rgb(0%,0%,0%);fill-opacity:1;" d="M 228.648438 419.1875 L 241.351562 419.1875 L 241.351562 431.890625 L 228.648438 431.890625 Z M 228.648438 419.1875 "/>
<path style=" stroke:none;fill-rule:nonzero;fill:rgb(0%,0%,0%);fill-opacity:1;" d="M 266.757812 419.1875 L 279.460938 419.1875 L 279.460938 431.890625 L 266.757812 431.890625 Z M 266.757812 419.1875 "/>
<path style=" stroke:none;fill-rule:nonzero;fill:rgb(0%,0%,0%);fill-opacity:1;" d="M 279.460938 419.1875 L 292.164062 419.1875 L 292.164062 431.890625 L 279.460938 431.890625 Z M 279.460938 419.1875 "/>
<path style=" stroke:none;fill-rule:nonzero;fill:rgb(0%,0%,0%);fill-opacity:1;" d="M 342.972656 419.1875 L 355.675781 419.1875 L 355.675781 431.890625 L 342.972656 431.890625 Z M 342.972656 419.1875 "/>
<path style=" stroke:none;fill-rule:nonzero;fill:rgb(0%,0%,0%);fill-opacity:1;" d="M 355.675781 419.1875 L 368.378906 419.1875 L 368.378906 431.890625 L 355.675781 431.890625 Z M 355.675781 419.1875 "/>
<path style=" stroke:none;fill-rule:nonzero;fill:rgb(0%,0%,0%);fill-opacity:1;" d="M 368.378906 419.1875 L 381.082031 419.1875 L 381.082031 431.890625 L 368.378906 431.890625 Z M 368.378906 419.1875 "/>
<path style=" stroke:none;fill-rule:nonzero;fill:rgb(0%,0%,0%);fill-opacity:1;" d="M 381.082031 419.1875 L 393.785156 419.1875 L 393.785156 431.890625 L 381.082031 431.890625 Z M 381.082031 419.1875 "/>
<path style=" stroke:none;fill-rule:nonzero;fill:rgb(0%,0%,0%);fill-opacity:1;" d="M 393.785156 419.1875 L 406.488281 419.1875 L 406.488281 431.890625 L 393.785156 431.890625 Z M 393.785156 419.1875 "/>
<path style=" stroke:none;fill-rule:nonzero;fill:rgb(0%,0%,0%);fill-opacity:1;" d="M 406.488281 419.1875 L 419.1875 419.1875 L 419.1875 431.890625 L 406.488281 431.890625 Z M 406.488281 419.1875 "/>
<path style=" stroke:none;fill-rule:nonzero;fill:rgb(0%,0%,0%);fill-opacity:1;" d="M 127.027344 431.890625 L 139.730469 431.890625 L 139.730469 444.59375 L 127.027344 444.59375 Z M 127.027344 431.890625 "/>
<path style=" stroke:none;fill-rule:nonzero;fill:rgb(0%,0%,0%);fill-opacity:1;" d="M 139.730469 431.890625 L 152.433594 431.890625 L 152.433594 444.59375 L 139.730469 444.59375 Z M 139.730469 431.890625 "/>
<path style=" stroke:none;fill-rule:nonzero;fill:rgb(0%,0%,0%);fill-opacity:1;" d="M 152.433594 431.890625 L 165.136719 431.890625 L 165.136719 444.59375 L 152.433594 444.59375 Z M 152.433594 431.890625 "/>
<path style=" stroke:none;fill-rule:nonzero;fill:rgb(0%,0%,0%);fill-opacity:1;" d="M 165.136719 431.890625 L 177.835938 431.890625 L 177.835938 444.59375 L 165.136719 444.59375 Z M 165.136719 431.890625 "/>
<path style=" stroke:none;fill-rule:nonzero;fill:rgb(0%,0%,0%);fill-opacity:1;" d="M 177.835938 431.890625 L 190.539062 431.890625 L 190.539062 444.59375 L 177.835938 444.59375 Z M 177.835938 431.890625 "/>
<path style=" stroke:none;fill-rule:nonzero;fill:rgb(0%,0%,0%);fill-opacity:1;" d="M 241.351562 431.890625 L 254.054688 431.890625 L 254.054688 444.59375 L 241.351562 444.59375 Z M 241.351562 431.890625 "/>
<path style=" stroke:none;fill-rule:nonzero;fill:rgb(0%,0%,0%);fill-opacity:1;" d="M 266.757812 431.890625 L 279.460938 431.890625 L 279.460938 444.59375 L 266.757812 444.59375 Z M 266.757812 431.890625 "/>
<path style=" stroke:none;fill-rule:nonzero;fill:rgb(0%,0%,0%);fill-opacity:1;" d="M 304.863281 431.890625 L 317.566406 431.890625 L 317.566406 444.59375 L 304.863281 444.59375 Z M 304.863281 431.890625 "/>
<path style=" stroke:none;fill-rule:nonzero;fill:rgb(0%,0%,0%);fill-opacity:1;" d="M 317.566406 431.890625 L 330.269531 431.890625 L 330.269531 444.59375 L 317.566406 444.59375 Z M 317.566406 431.890625 "/>
<path style=" stroke:none;fill-rule:nonzero;fill:rgb(0%,0%,0%);fill-opacity:1;" d="M 330.269531 431.890625 L 342.972656 431.890625 L 342.972656 444.59375 L 330.269531 444.59375 Z M 330.269531 431.890625 "/>
<path style=" stroke:none;fill-rule:nonzero;fill:rgb(0%,0%,0%);fill-opacity:1;" d="M 368.378906 431.890625 L 381.082031 431.890625 L 381.082031 444.59375 L 368.378906 444.59375 Z M 368.378906 431.890625 "/>
<path style=" stroke:none;fill-rule:nonzero;fill:rgb(0%,0%,0%);fill-opacity:1;" d="M 393.785156 431.890625 L 406.488281 431.890625 L 406.488281 444.59375 L 393.785156 444.59375 Z M 393.785156 431.890625 "/>
<path style=" stroke:none;fill-rule:nonzero;fill:rgb(0%,0%,0%);fill-opacity:1;" d="M 419.1875 431.890625 L 431.890625 431.890625 L 431.890625 444.59375 L 419.1875 444.59375 Z M 419.1875 431.890625 "/>
<path style=" stroke:none;fill-rule:nonzero;fill:rgb(0%,0%,0%);fill-opacity:1;" d="M 100.988281 25.40625 L 25.40625 25.40625 L 25.40625 114.324219 L 114.324219 114.324219 L 114.324219 25.40625 Z M 100.988281 100.988281 L 38.742188 100.988281 L 38.742188 38.742188 L 100.988281 38.742188 Z M 100.988281 100.988281 "/>
<path style=" stroke:none;fill-rule:nonzero;fill:rgb(0%,0%,0%);fill-opacity:1;" d="M 431.257812 25.40625 L 355.675781 25.40625 L 355.675781 114.324219 L 444.59375 114.324219 L 444.59375 25.40625 Z M 431.257812 100.988281 L 369.011719 100.988281 L 369.011719 38.742188 L 431.257812 38.742188 Z M 431.257812 100.988281 "/>
<path style=" stroke:none;fill-rule:nonzero;fill:rgb(0%,0%,0%);fill-opacity:1;" d="M 100.988281 355.675781 L 25.40625 355.675781 L 25.40625 444.59375 L 114.324219 444.59375 L 114.324219 355.675781 Z M 100.988281 431.257812 L 38.742188 431.257812 L 38.742188 369.011719 L 100.988281 369.011719 Z M 100.988281 431.257812 "/>
<path style=" stroke:none;fill-rule:nonzero;fill:rgb(0%,0%,0%);fill-opacity:1;" d="M 50.8125 50.8125 L 88.917969 50.8125 L 88.917969 88.917969 L 50.8125 88.917969 Z M 50.8125 50.8125 "/>
<path style=" stroke:none;fill-rule:nonzero;fill:rgb(0%,0%,0%);fill-opacity:1;" d="M 381.082031 50.8125 L 419.1875 50.8125 L 419.1875 88.917969 L 381.082031 88.917969 Z M 381.082031 50.8125 "/>
<path style=" stroke:none;fill-rule:nonzero;fill:rgb(0%,0%,0%);fill-opacity:1;" d="M 50.8125 381.082031 L 88.917969 381.082031 L 88.917969 419.1875 L 50.8125 419.1875 Z M 50.8125 381.082031 "/>
</g>
</svg>
